<svg width="114" height="163" viewBox="0 0 114 163" fill="none" xmlns="http://www.w3.org/2000/svg">
<path d="M51.6694 159.384C51.6182 159.655 51.7967 159.917 52.068 159.968L56.49 160.802C56.7614 160.854 57.0228 160.675 57.074 160.404C57.1252 160.133 56.9468 159.871 56.6754 159.82L52.7448 159.078L53.4864 155.148C53.5376 154.876 53.3591 154.615 53.0877 154.564C52.8164 154.512 52.5549 154.691 52.5037 154.962L51.6694 159.384ZM5.52737 21.9993C51.5644 19.5108 78.7494 43.1237 86.6599 72.6179C94.5811 102.152 83.2079 137.68 51.8788 159.064L52.4426 159.89C84.1133 138.273 95.6599 102.314 87.6258 72.3589C79.5812 42.3647 51.9361 18.4892 5.47339 21.0008L5.52737 21.9993Z" fill="black"/>
</svg>
