<svg width="216" height="115" viewBox="0 0 216 115" fill="none" xmlns="http://www.w3.org/2000/svg">
<mask id="mask0" mask-type="alpha" maskUnits="userSpaceOnUse" x="0" y="0" width="216" height="115">
<path fill-rule="evenodd" clip-rule="evenodd" d="M0 8C0 3.58172 3.58172 0 8 0H208C212.418 0 216 3.58172 216 8V107C216 111.418 212.418 115 208 115H8C3.58172 115 0 111.418 0 107V8Z" fill="#5756CE"/>
</mask>
<g mask="url(#mask0)">
<g filter="url(#filter0_d)">
<path fill-rule="evenodd" clip-rule="evenodd" d="M0 8C0 3.58172 3.58172 0 8 0H208C212.418 0 216 3.58172 216 8V107C216 111.418 212.418 115 208 115H8C3.58172 115 0 111.418 0 107V8Z" fill="#5756CE"/>
</g>
<ellipse cx="132.56" cy="-26.3788" rx="96.6647" ry="90.9923" fill="#383BBA" fill-opacity="0.5"/>
<ellipse cx="189.866" cy="95.7346" rx="96.6647" ry="90.9923" fill="#383BBA" fill-opacity="0.5"/>
</g>
<circle cx="108" cy="58" r="40" fill="white"/>
<mask id="mask1" mask-type="alpha" maskUnits="userSpaceOnUse" x="68" y="18" width="80" height="80">
<circle cx="108" cy="58" r="40" fill="#C4C4C4"/>
</mask>
<g mask="url(#mask1)">
<path d="M131.756 78.3274L122.041 76.5121C121.979 76.501 121.915 76.4949 121.851 76.4949H94.9256C94.8619 76.4949 94.7982 76.501 94.7354 76.5121L84.9327 78.3486C79.9348 79.7483 77.3204 84.6714 77.3204 88.8117V94.4863C77.3204 96.5575 79.1783 98.2424 81.4628 98.2424H135.314C137.598 98.2424 139.456 96.5575 139.456 94.4863V88.8117C139.456 84.6714 136.842 79.7483 131.756 78.3274Z" fill="#007AFF"/>
<path d="M113.408 98.2421L111.481 86.6807C111.398 86.1812 110.966 85.8149 110.46 85.8149H106.317C105.81 85.8149 105.379 86.181 105.296 86.6807L103.369 98.2421H113.408Z" fill="#B097FF"/>
<path d="M106.317 85.8149C106.053 85.8149 105.812 85.9184 105.627 86.085L112.533 92.9912L111.947 89.4766L108.286 85.8149H106.317Z" fill="#7047F0"/>
<path d="M112.524 80.6565C112.523 80.0851 112.059 79.6229 111.488 79.6229H106.31C105.918 79.6229 105.56 79.8444 105.384 80.1954L104.348 82.2665C104.275 82.4111 104.238 82.571 104.239 82.7337L104.246 84.7806C104.246 86.4928 105.64 87.8863 107.353 87.8863H109.424C111.137 87.8863 112.531 86.4927 112.531 84.7775L112.524 80.6565Z" fill="#7047F0"/>
<path d="M108.886 76.6476L99.5727 71.4484C99.1207 71.1946 98.5523 71.3179 98.2419 71.7286L94.3331 76.9065C94.0661 77.2604 94.053 77.745 94.3018 78.1111L100.615 87.4304C100.963 87.9431 101.517 88.2708 102.132 88.3294C102.199 88.3355 102.266 88.3385 102.332 88.3385C102.878 88.3385 103.402 88.1241 103.793 87.7337C103.819 87.7074 103.845 87.6791 103.868 87.6498L108.159 82.3222C108.205 82.2655 108.246 82.2028 108.278 82.1371L109.307 80.0871C109.38 79.9435 109.417 79.7837 109.417 79.6229V77.5517C109.417 77.1766 109.214 76.8307 108.886 76.6476Z" fill="#F2F2F2"/>
<path d="M107.877 76.6476L117.19 71.4484C117.642 71.1946 118.21 71.3179 118.521 71.7286L122.429 76.9065C122.696 77.2604 122.71 77.745 122.461 78.1111L116.147 87.4304C115.799 87.9431 115.246 88.2708 114.63 88.3294C114.563 88.3355 114.497 88.3385 114.431 88.3385C113.885 88.3385 113.361 88.1241 112.97 87.7337C112.943 87.7074 112.918 87.6791 112.895 87.6498L108.604 82.3222C108.557 82.2655 108.517 82.2028 108.484 82.1371L107.456 80.0871C107.383 79.9435 107.346 79.7837 107.346 79.6229V77.5517C107.346 77.1766 107.549 76.8307 107.877 76.6476Z" fill="#F2F2F2"/>
<path d="M122.88 51.6615L120.837 49.5903C120.837 49.5903 113.818 47.6917 99.0609 49.5903L92.8473 51.6615C92.8473 53.0854 92.8473 53.9333 92.8473 58.9107C92.8473 69.2057 99.8021 77.5514 108.381 77.5514C116.96 77.5514 123.915 69.2057 123.915 58.9107C123.915 57.24 123.915 54.0563 123.915 51.6615C123.647 51.961 122.88 51.6615 122.88 51.6615Z" fill="#FFDCAD"/>
<path d="M106.776 72.4765C105.672 72.0991 104.897 71.4905 104.534 71.1616C104.077 70.7487 104.043 70.0438 104.456 69.5882C104.869 69.1315 105.573 69.0974 106.03 69.5103C106.395 69.8412 107.401 70.6079 108.836 70.577C109.933 70.5527 110.748 70.0663 111.137 69.779C111.631 69.4125 112.329 69.5165 112.695 70.0112C113.061 70.5057 112.957 71.2031 112.462 71.5695C111.862 72.0144 110.598 72.7665 108.884 72.8043C108.091 72.8218 107.384 72.6842 106.776 72.4765Z" fill="#C06100"/>
<path d="M102.146 63.0533C104.434 63.0533 106.289 61.1987 106.289 58.9109C106.289 56.6232 104.434 54.7686 102.146 54.7686C99.8586 54.7686 98.004 56.6232 98.004 58.9109C98.004 61.1987 99.8586 63.0533 102.146 63.0533Z" fill="#AEEFFF"/>
<path d="M114.573 63.0533C116.861 63.0533 118.716 61.1987 118.716 58.9109C118.716 56.6232 116.861 54.7686 114.573 54.7686C112.286 54.7686 110.431 56.6232 110.431 58.9109C110.431 61.1987 112.286 63.0533 114.573 63.0533Z" fill="#AEEFFF"/>
<path d="M110.481 59.9467C109.908 59.9467 109.445 59.4835 109.445 58.9111C109.445 58.3397 108.981 57.8755 108.41 57.8755C107.838 57.8755 107.374 58.3397 107.374 58.9111C107.374 59.4835 106.911 59.9467 106.338 59.9467C105.766 59.9467 105.303 59.4835 105.303 58.9111C105.303 57.198 106.696 55.8043 108.41 55.8043C110.123 55.8043 111.516 57.198 111.516 58.9111C111.516 59.4835 111.053 59.9467 110.481 59.9467Z" fill="#7047F0"/>
<path d="M98.0537 58.9108H92.8474C92.2749 58.9108 91.8118 58.4476 91.8118 57.8752C91.8118 57.3028 92.2749 56.8396 92.8474 56.8396H98.0537C98.6261 56.8396 99.0893 57.3028 99.0893 57.8752C99.0893 58.4476 98.626 58.9108 98.0537 58.9108Z" fill="#7047F0"/>
<path d="M123.915 58.9108H118.766C118.193 58.9108 117.73 58.4476 117.73 57.8752C117.73 57.3028 118.193 56.8396 118.766 56.8396H123.915C124.488 56.8396 124.951 57.3028 124.951 57.8752C124.951 58.4476 124.488 58.9108 123.915 58.9108Z" fill="#7047F0"/>
<path d="M102.196 64.0888C99.3412 64.0888 97.0182 61.7658 97.0182 58.9108C97.0182 56.0558 99.3412 53.7328 102.196 53.7328C105.051 53.7328 107.374 56.0558 107.374 58.9108C107.374 61.7658 105.051 64.0888 102.196 64.0888ZM102.196 55.804C100.483 55.804 99.0894 57.1976 99.0894 58.9108C99.0894 60.6239 100.483 62.0176 102.196 62.0176C103.909 62.0176 105.303 60.6239 105.303 58.9108C105.303 57.1976 103.909 55.804 102.196 55.804Z" fill="#7047F0"/>
<path d="M114.623 64.0888C111.768 64.0888 109.445 61.7658 109.445 58.9108C109.445 56.0558 111.768 53.7328 114.623 53.7328C117.478 53.7328 119.801 56.0558 119.801 58.9108C119.801 61.7658 117.478 64.0888 114.623 64.0888ZM114.623 55.804C112.91 55.804 111.516 57.1976 111.516 58.9108C111.516 60.6239 112.91 62.0176 114.623 62.0176C116.336 62.0176 117.73 60.6239 117.73 58.9108C117.73 57.1976 116.336 55.804 114.623 55.804Z" fill="#7047F0"/>
<path d="M129.1 58.8893C128.528 58.8893 128.065 58.4261 128.065 57.8537V45.5064C128.065 44.934 128.528 44.4708 129.1 44.4708C129.673 44.4708 130.136 44.934 130.136 45.5064V57.8537C130.136 58.4261 129.673 58.8893 129.1 58.8893Z" fill="#3E435E"/>
<path d="M132.466 39.7897L111.401 32.5678C109.121 31.785 106.605 31.785 104.323 32.5678L83.258 39.7897C82.1566 40.1679 81.4457 41.163 81.4457 42.3271C81.4457 43.4913 82.1566 44.4864 83.258 44.8646L93.5583 48.3961C93.6665 48.4325 93.7798 48.4518 93.8941 48.4518C93.8981 48.4518 93.9031 48.4518 93.9073 48.4518L122.9 48.0897C123.009 48.0887 123.118 48.0695 123.223 48.034L132.466 44.8646C133.567 44.4864 134.278 43.4913 134.278 42.3271C134.278 41.163 133.567 40.1679 132.466 39.7897Z" fill="#3E435E"/>
<path d="M104.837 50.2582C105.936 50.1784 107.113 50.1292 108.389 50.1292C109.666 50.1292 110.843 50.1783 111.941 50.2582C116.158 50.5018 121.169 51.1989 123.923 52.697V44.4122C123.923 40.8544 115.871 39.2343 108.389 39.2343C100.908 39.2343 92.8555 40.8544 92.8555 44.4122V52.697C95.6098 51.1988 100.62 50.5018 104.837 50.2582Z" fill="#454B69"/>
<path d="M108.388 44.9728C103.894 44.9728 96.4494 45.5638 92.8545 47.5193V50.1508C92.8545 49.2486 98.2985 47.044 108.388 47.044C118.478 47.044 123.922 49.2486 123.922 50.1508V47.5193C120.328 45.564 112.883 44.9728 108.388 44.9728Z" fill="#646E9F"/>
<path d="M108.381 44.9729V47.0441C108.384 47.0441 108.386 47.044 108.389 47.044C118.479 47.044 123.923 49.2486 123.923 50.1508V47.5193C120.328 45.564 112.883 44.9728 108.389 44.9728C108.386 44.9728 108.384 44.9729 108.381 44.9729Z" fill="#4B506C"/>
<path d="M130.129 65.1245H128.058C127.486 65.1245 127.022 64.6609 127.022 64.0889V59.9466C127.022 58.8026 127.949 57.8754 129.093 57.8754C130.237 57.8754 131.164 58.8026 131.164 59.9466V64.0889C131.164 64.6609 130.701 65.1245 130.129 65.1245Z" fill="#FFDC64"/>
<path d="M87.6768 91.318C87.6768 89.1208 86.8039 87.0136 85.2502 85.4598L80.6514 80.8608C78.4575 83.0359 77.3207 86.0898 77.3207 88.8115V94.4861C77.3207 96.5572 79.1785 98.2422 81.4631 98.2422H87.6769V91.318H87.6768Z" fill="#F2F2F2"/>
<path d="M136.116 80.8707L131.527 85.46C129.973 87.0136 129.101 89.1209 129.101 91.3182V98.2423H135.314C137.598 98.2423 139.456 96.5574 139.456 94.4862V88.8117C139.456 86.0965 138.325 83.0507 136.116 80.8707Z" fill="#F2F2F2"/>
<path d="M104.922 88.9232L104.504 91.4336L111.311 98.2422H113.408L113.242 97.2435L104.922 88.9232Z" fill="#7047F0"/>
<path d="M103.579 96.9812L104.84 98.242H107.768L103.997 94.4708L103.579 96.9812Z" fill="#7047F0"/>
<circle cx="108" cy="58" r="39.5" stroke="#F2F2F2"/>
</g>
<defs>
<filter id="filter0_d" x="-21" y="-22" width="264" height="163" filterUnits="userSpaceOnUse" color-interpolation-filters="sRGB">
<feFlood flood-opacity="0" result="BackgroundImageFix"/>
<feColorMatrix in="SourceAlpha" type="matrix" values="0 0 0 0 0 0 0 0 0 0 0 0 0 0 0 0 0 0 127 0"/>
<feOffset dx="3" dy="2"/>
<feGaussianBlur stdDeviation="12"/>
<feColorMatrix type="matrix" values="0 0 0 0 0 0 0 0 0 0 0 0 0 0 0 0 0 0 0.09 0"/>
<feBlend mode="normal" in2="BackgroundImageFix" result="effect1_dropShadow"/>
<feBlend mode="normal" in="SourceGraphic" in2="effect1_dropShadow" result="shape"/>
</filter>
</defs>
</svg>
