<svg width="24" height="24" fill="none" xmlns="http://www.w3.org/2000/svg"><path fill-rule="evenodd" clip-rule="evenodd" d="M17.163 12.59c0-2.664 2.258-3.89 2.258-3.89s-1.48-2.243-3.794-2.243c-1.717 0-2.628 1.006-3.785 1.006-1.376 0-2.087-1.006-3.795-1.006C6.102 6.457 3 8.211 3 12.59c0 4.217 3.064 9.401 5.436 9.401 1.243 0 1.793-.814 3.424-.814 1.88 0 1.974.814 3.387.814 2.514 0 4.753-5.319 4.753-5.319s-2.837-.92-2.837-4.082zM15.232 1.992c-1.764.144-4.269 1.984-3.927 4.715 2.324.086 4.269-2.568 3.927-4.715z" fill="#000"/></svg>