<svg width="100" height="22" fill="none" xmlns="http://www.w3.org/2000/svg"><path d="M0 .892h3.159V7.65H3.2c.365-.49.828-.833 1.39-1.029a5.367 5.367 0 0 1 1.853-.314c.73 0 1.383.153 1.958.461a4.3 4.3 0 0 1 1.453 1.197c.407.504.716 1.084.927 1.742a6.13 6.13 0 0 1 .337 2.037c0 .77-.12 1.476-.358 2.12a4.892 4.892 0 0 1-1.032 1.679 4.687 4.687 0 0 1-1.58 1.092c-.617.252-1.305.378-2.063.378-.365 0-.71-.05-1.032-.148a4.738 4.738 0 0 1-.905-.377 4.635 4.635 0 0 1-.716-.504 4.18 4.18 0 0 1-.485-.567h-.042v1.344H0V.892zM2.906 11.66c0 .77.218 1.393.653 1.869.45.476 1.074.713 1.874.713s1.418-.237 1.853-.713c.45-.476.674-1.099.674-1.868 0-.77-.225-1.393-.674-1.869-.435-.476-1.053-.714-1.853-.714s-1.425.238-1.874.714c-.435.476-.653 1.099-.653 1.869zm19.919 5.102h-3.033v-1.386h-.042c-.112.196-.26.392-.442.588-.168.196-.379.37-.632.525-.252.154-.54.28-.863.377a3.61 3.61 0 0 1-1.053.148c-.8 0-1.453-.12-1.958-.357a2.95 2.95 0 0 1-1.159-1.029 4.24 4.24 0 0 1-.547-1.532 13.503 13.503 0 0 1-.127-1.91V6.558h3.16v4.997c0 .293.006.601.02.923.028.308.092.595.19.86.112.267.274.484.484.652.225.168.54.252.948.252.407 0 .737-.07.99-.21.252-.154.442-.35.568-.588.14-.252.232-.532.274-.84.042-.308.063-.63.063-.966V6.56h3.159v10.203zm12.976-.862c0 1.932-.491 3.395-1.474 4.388-.968 1.008-2.45 1.512-4.443 1.512-.913 0-1.811-.105-2.695-.315a5.995 5.995 0 0 1-2.443-1.176l1.748-2.603a6.702 6.702 0 0 0 1.537.966 4.443 4.443 0 0 0 1.79.357c.968 0 1.677-.238 2.127-.714.463-.462.695-1.057.695-1.784v-.987H32.6c-.364.49-.82.84-1.368 1.05a4.403 4.403 0 0 1-1.517.293c-.758 0-1.445-.125-2.063-.377a4.92 4.92 0 0 1-1.6-1.092 5.07 5.07 0 0 1-1.011-1.68 6.058 6.058 0 0 1-.358-2.12c0-.671.105-1.329.315-1.973.225-.644.534-1.21.927-1.7.407-.49.898-.882 1.474-1.176.576-.308 1.229-.461 1.959-.461.449 0 .856.048 1.22.146.38.098.717.224 1.012.378.294.154.547.33.758.525.21.182.379.364.505.546h.042V6.559h2.906v9.342zm-7.96-4.303c0 .336.063.658.19.966.126.294.302.56.526.798.239.224.506.406.8.546.31.14.646.21 1.011.21.351 0 .681-.07.99-.21.309-.14.576-.322.8-.546.239-.238.421-.504.548-.798.126-.308.19-.63.19-.966 0-.335-.064-.65-.19-.944a2.255 2.255 0 0 0-.548-.798 2.516 2.516 0 0 0-.8-.567 2.37 2.37 0 0 0-.99-.21c-.365 0-.702.07-1.01.21a2.88 2.88 0 0 0-.8.567c-.225.224-.4.49-.527.798-.127.294-.19.609-.19.944zM38.368 6.56h3.159v10.202h-3.159V6.559zm-.253-3.212c0-.504.176-.931.527-1.28.365-.365.8-.547 1.305-.547.506 0 .934.182 1.285.546.365.35.547.777.547 1.28 0 .504-.182.938-.547 1.302a1.75 1.75 0 0 1-1.285.525 1.82 1.82 0 0 1-1.305-.525 1.81 1.81 0 0 1-.527-1.301zm5.681 3.212h3.033v1.385h.042a2.55 2.55 0 0 1 .42-.588c.183-.196.401-.37.654-.525.252-.154.54-.28.863-.378a3.612 3.612 0 0 1 1.053-.146c.8 0 1.446.125 1.937.377.492.238.87.574 1.137 1.008.281.434.47.945.57 1.532.097.588.146 1.225.146 1.91v5.627h-3.158v-4.997a9.97 9.97 0 0 0-.042-.902 2.531 2.531 0 0 0-.19-.882 1.402 1.402 0 0 0-.484-.65c-.21-.169-.52-.253-.927-.253-.407 0-.737.077-.99.231-.252.14-.449.336-.59.588-.126.238-.21.511-.252.819-.042.308-.063.63-.063.966v5.08h-3.159V6.559zm12.155 8.396a1.958 1.958 0 0 1 .548-1.365 1.941 1.941 0 0 1 1.39-.566c.267 0 .52.049.758.147a1.7 1.7 0 0 1 .61.42c.183.168.324.37.422.608.098.238.147.49.147.756s-.049.518-.147.756a1.846 1.846 0 0 1-1.032 1.029 1.978 1.978 0 0 1-.758.146 1.99 1.99 0 0 1-.758-.146 2.102 2.102 0 0 1-.632-.4 2.095 2.095 0 0 1-.4-.629 1.962 1.962 0 0 1-.148-.756zM67.91 9.561c-.463-.574-1.073-.86-1.832-.86a1.73 1.73 0 0 0-.779.189c-.253.125-.379.342-.379.65 0 .252.126.441.38.567.266.112.596.217.989.315.407.084.835.182 1.284.294.464.098.892.259 1.285.483.407.224.737.531.99.923.267.378.4.889.4 1.533 0 .658-.148 1.203-.442 1.637-.281.42-.646.763-1.095 1.029a4.74 4.74 0 0 1-1.516.524 8.49 8.49 0 0 1-1.664.169 8.341 8.341 0 0 1-2.17-.294 4.136 4.136 0 0 1-1.852-1.092l1.916-2.12c.295.364.618.644.969.84.365.181.786.272 1.263.272.365 0 .695-.049.99-.147.295-.112.442-.308.442-.587 0-.266-.133-.462-.4-.588-.253-.14-.582-.252-.99-.336a36.911 36.911 0 0 0-1.284-.294 5.915 5.915 0 0 1-1.285-.483 2.834 2.834 0 0 1-.99-.881c-.252-.392-.379-.91-.379-1.554 0-.602.12-1.12.358-1.553.253-.434.576-.79.97-1.07.406-.28.87-.484 1.389-.61.52-.14 1.046-.21 1.58-.21.673 0 1.354.098 2.042.294a3.79 3.79 0 0 1 1.748 1.05l-1.938 1.91zm3.578 2.099c0-.811.147-1.546.442-2.204a5.032 5.032 0 0 1 1.2-1.679 5.4 5.4 0 0 1 1.812-1.092 6.558 6.558 0 0 1 2.232-.377 6.38 6.38 0 0 1 2.211.377 5.136 5.136 0 0 1 1.811 1.092 4.88 4.88 0 0 1 1.221 1.68c.295.657.443 1.392.443 2.204 0 .811-.148 1.546-.443 2.204a5.117 5.117 0 0 1-1.221 1.7 5.306 5.306 0 0 1-1.811 1.07 6.38 6.38 0 0 1-2.211.378 6.58 6.58 0 0 1-2.232-.377 5.588 5.588 0 0 1-1.811-1.071 5.264 5.264 0 0 1-1.2-1.7c-.296-.658-.443-1.393-.443-2.204zm3.159 0c0 .77.217 1.393.653 1.869.449.476 1.074.713 1.874.713s1.418-.237 1.853-.713c.45-.476.674-1.099.674-1.868 0-.77-.225-1.393-.674-1.869-.435-.476-1.053-.714-1.853-.714s-1.425.238-1.874.714c-.436.476-.653 1.099-.653 1.869zm11.168-2.582H83.73V6.56h2.085V4.754c0-.56.05-1.084.148-1.574a3.21 3.21 0 0 1 .568-1.323c.28-.378.681-.672 1.2-.881C88.266.752 88.96.64 89.816.64c.323 0 .639.014.948.042.309.028.61.077.905.147l-.147 2.666a2.842 2.842 0 0 0-.505-.147 2.01 2.01 0 0 0-.527-.063c-.505 0-.884.112-1.137.336-.253.21-.38.65-.38 1.322v1.616h2.338v2.52h-2.337v7.683h-3.159V9.078zm13.669 0h-2.78v3.401c0 .28.015.539.043.777.028.224.091.42.19.588.098.168.245.3.442.399.21.083.484.125.821.125.168 0 .386-.014.653-.042.28-.042.491-.126.632-.251v2.624a4.84 4.84 0 0 1-1.096.252c-.379.041-.75.063-1.116.063a6.088 6.088 0 0 1-1.474-.168 3.482 3.482 0 0 1-1.179-.525 2.694 2.694 0 0 1-.8-.966c-.183-.392-.274-.868-.274-1.427v-4.85h-2.022V6.56h2.022V3.537h3.159v3.022h2.78v2.52z" fill="#A9ADB1"/></svg>