<svg width="16" height="16" fill="none" xmlns="http://www.w3.org/2000/svg"><path fill-rule="evenodd" clip-rule="evenodd" d="M11.442 8.393c0-1.776 1.505-2.593 1.505-2.593s-.986-1.495-2.529-1.495c-1.145 0-1.752.67-2.524.67-.917 0-1.39-.67-2.53-.67C4.068 4.305 2 5.475 2 8.393c0 2.811 2.043 6.268 3.624 6.268.828 0 1.195-.543 2.283-.543 1.252 0 1.316.543 2.258.543 1.676 0 3.168-3.546 3.168-3.546s-1.89-.613-1.89-2.722zm-1.287-7.065c-1.176.096-2.846 1.323-2.618 3.144 1.55.057 2.845-1.713 2.618-3.144z" fill="#A9ADB1"/></svg>