<svg width="24" height="24" fill="none" xmlns="http://www.w3.org/2000/svg"><path clip-rule="evenodd" d="M20.516 16.084l-2.382-2.382a1.65 1.65 0 0 0-2.334 0l-1.976 1.976a10.276 10.276 0 0 1-5.502-5.502L10.298 8.2a1.65 1.65 0 0 0 0-2.334L7.916 3.484a1.65 1.65 0 0 0-2.335 0L4.45 4.616a4.994 4.994 0 0 0-1.354 4.498c1.16 5.94 5.85 10.632 11.791 11.792a4.998 4.998 0 0 0 4.498-1.355l1.132-1.132a1.65 1.65 0 0 0 0-2.335z" stroke="#000" stroke-width="1.5" stroke-linecap="round" stroke-linejoin="round"/><path d="M13.636 3A7.363 7.363 0 0 1 21 10.364m-7.364-4.091a4.091 4.091 0 0 1 4.09 4.091" stroke="#000" stroke-width="1.5" stroke-linecap="round" stroke-linejoin="round"/></svg>