<svg width="12" height="12" fill="none" xmlns="http://www.w3.org/2000/svg"><path d="M7.75 3a1.75 1.75 0 1 1-3.501-.001A1.75 1.75 0 0 1 7.75 3z" stroke="#000" stroke-width="1.5" stroke-linecap="round" stroke-linejoin="round"/><mask id="a" fill="#fff"><path fill-rule="evenodd" clip-rule="evenodd" d="M10.5 11.5v-1.375C10.5 8.681 8.475 7.5 6 7.5s-4.5 1.18-4.5 2.625V11.5"/></mask><path d="M9 11.5a1.5 1.5 0 0 0 3 0H9zm-9 0a1.5 1.5 0 0 0 3 0H0zm12 0v-1.375H9V11.5h3zm0-1.375c0-1.481-1.025-2.542-2.066-3.15C8.852 6.345 7.457 6 6 6v3c1.018 0 1.873.246 2.422.567.273.158.43.312.51.421a.44.44 0 0 1 .062.109.082.082 0 0 1 .006.028h3zM6 6c-1.457 0-2.852.344-3.934.975C1.025 7.583 0 8.644 0 10.125h3c0-.002 0-.01.006-.028a.44.44 0 0 1 .062-.109c.08-.109.237-.263.51-.421C4.128 9.246 4.982 9 6 9V6zm-6 4.125V11.5h3v-1.375H0z" fill="#000" mask="url(#a)"/></svg>