<svg width="24" height="24" fill="none" xmlns="http://www.w3.org/2000/svg"><path d="M9.7 5.25A3.708 3.708 0 0 0 6 8.95v5.35C6 16.336 7.663 18 9.7 18h5.35c2.037 0 3.7-1.663 3.7-3.7V8.95c0-2.037-1.663-3.7-3.7-3.7H9.7zm0 .98h5.35a2.713 2.713 0 0 1 2.72 2.72v5.35a2.713 2.713 0 0 1-2.72 2.72H9.7a2.712 2.712 0 0 1-2.72-2.72V8.95A2.713 2.713 0 0 1 9.7 6.23zm6.353.982a.736.736 0 1 0 0 1.471.736.736 0 0 0 0-1.471zm-3.678.98a3.44 3.44 0 0 0-3.433 3.433 3.44 3.44 0 0 0 3.433 3.433 3.44 3.44 0 0 0 3.433-3.433 3.44 3.44 0 0 0-3.433-3.433zm0 .981a2.444 2.444 0 0 1 2.452 2.452 2.444 2.444 0 0 1-2.452 2.452 2.444 2.444 0 0 1-2.452-2.452 2.444 2.444 0 0 1 2.452-2.452z" fill="#A9ADB1"/></svg>