<svg width="24" height="24" fill="none" xmlns="http://www.w3.org/2000/svg"><path d="M23 12c0 6.075-4.925 11-11 11S1 18.075 1 12 5.925 1 12 1s11 4.925 11 11z" stroke="#007DFF" stroke-width="2"/><path d="M13.75 9a1.75 1.75 0 1 1-3.501-.001 1.75 1.75 0 0 1 3.501 0z" stroke="#007DFF" stroke-width="1.5" stroke-linecap="round" stroke-linejoin="round"/><mask id="a" fill="#fff"><path fill-rule="evenodd" clip-rule="evenodd" d="M16.5 17.5v-1.375c0-1.444-2.025-2.625-4.5-2.625s-4.5 1.18-4.5 2.625V17.5"/></mask><path d="M15 17.5a1.5 1.5 0 0 0 3 0h-3zm-9 0a1.5 1.5 0 0 0 3 0H6zm12 0v-1.375h-3V17.5h3zm0-1.375c0-1.481-1.025-2.543-2.066-3.15C14.852 12.345 13.458 12 12 12v3c1.018 0 1.873.246 2.422.566.273.16.43.313.51.422a.44.44 0 0 1 .062.109.081.081 0 0 1 .006.028h3zM12 12c-1.457 0-2.852.344-3.934.975C7.025 13.582 6 14.644 6 16.125h3c0-.003 0-.01.006-.028a.441.441 0 0 1 .062-.109c.08-.109.237-.262.51-.421.55-.321 1.405-.567 2.422-.567v-3zm-6 4.125V17.5h3v-1.375H6z" fill="#007DFF" mask="url(#a)"/></svg>