<svg width="264" height="163" fill="none" xmlns="http://www.w3.org/2000/svg"><g filter="url(#filter0_d)"><mask id="a" maskUnits="userSpaceOnUse" x="24" y="24" width="216" height="115"><path fill-rule="evenodd" clip-rule="evenodd" d="M24 32a8 8 0 0 1 8-8h200a8 8 0 0 1 8 8v99a8 8 0 0 1-8 8H32a8 8 0 0 1-8-8V32z" fill="#5756CE"/></mask><g mask="url(#a)" fill="#4CD964"><path fill-rule="evenodd" clip-rule="evenodd" d="M24 32a8 8 0 0 1 8-8h200a8 8 0 0 1 8 8v99a8 8 0 0 1-8 8H32a8 8 0 0 1-8-8V32z" fill-opacity=".5" filter="url(#filter1_d)"/><ellipse cx="156.56" cy="-2.379" rx="96.665" ry="90.992" fill-opacity=".5"/><ellipse cx="213.866" cy="119.734" rx="96.665" ry="90.992"/></g></g><circle cx="132" cy="83" r="40" fill="#fff"/><mask id="b" maskUnits="userSpaceOnUse" x="92" y="43" width="80" height="80"><circle cx="132" cy="83" r="40" fill="#C4C4C4"/></mask><g mask="url(#b)"><path d="M151.441 88.646l-.413 3.71-.278 2.5h-35l-.278-2.5-.413-3.71a19.24 19.24 0 0 1 1.438-9.698 19.243 19.243 0 0 0 1.531-8.536l-.217-4.326a15.46 15.46 0 0 1 21.532-14.977 15.454 15.454 0 0 1 9.346 14.977l-.217 4.326a19.257 19.257 0 0 0 1.531 8.535 19.218 19.218 0 0 1 1.438 9.699z" fill="#454B69"/><path opacity=".1" d="M151.441 88.646l-.413 3.71H137v-13.75l2.5-5v-10a13.768 13.768 0 0 0-10.116-13.263 15.477 15.477 0 0 1 19.305 15.743l-.217 4.326a19.243 19.243 0 0 0 1.531 8.535 19.219 19.219 0 0 1 1.438 9.699z" fill="#000"/><path d="M140 89.857a1.752 1.752 0 0 1-1.617-1.08 1.75 1.75 0 0 1-.133-.67v-8.25h-10v8.25a1.75 1.75 0 0 1-1.75 1.75h-2v7.5H142v-7.5h-2z" fill="#FFDCAD"/><path d="M134.004 86.107a6.858 6.858 0 0 0 4.246-1.532v-4.718h-10v4.717a6.857 6.857 0 0 0 4.246 1.533h1.508z" fill="#FEB784"/><path d="M144.5 66.107v6.25a11.25 11.25 0 1 1-22.5 0v-6.25a16.963 16.963 0 0 0 5.766-6.531l.484-.97.709.593a31.13 31.13 0 0 0 10.541 5.766c1.632.517 3.305.9 5 1.142z" fill="#FFDCAD"/><path d="M144.5 66.107v6.25a11.256 11.256 0 0 1-9.103 11.045 13.698 13.698 0 0 0 4.103-9.795v-8.642a31.24 31.24 0 0 0 5 1.142z" fill="#FEC093"/><path d="M127.625 71.107a1.877 1.877 0 0 1-1.839-2.241 1.874 1.874 0 1 1 1.839 2.24zm11.25 0a1.877 1.877 0 0 1-1.839-2.241 1.874 1.874 0 1 1 1.839 2.24z" fill="#7A432A"/><path d="M133.25 80.464a3.753 3.753 0 0 1-3.542-2.523c-.227-.652.352-1.227 1.043-1.227h.267c.542 0 .965.5 1.348.883a1.25 1.25 0 0 0 1.768 0c.383-.383.806-.883 1.348-.883h.267c.691 0 1.27.575 1.043 1.227a3.753 3.753 0 0 1-3.542 2.522z" fill="#C06100"/><path d="M158.714 122.305a3.792 3.792 0 0 1-4.214-2.517l-8.256-15.489a9.731 9.731 0 0 1-1.744 9.308v10H122v-10a9.754 9.754 0 0 1-1.725-9.424l-8.391 15.605a3.79 3.79 0 0 1-4.781 2.38 3.792 3.792 0 0 1-2.42-4.761l9.178-22.846a7.502 7.502 0 0 1 6.959-4.704h4.93l7.5 13.75 7.5-13.75h4.911a7.507 7.507 0 0 1 6.969 4.73l9.073 22.82a3.785 3.785 0 0 1-.375 3.132 3.801 3.801 0 0 1-2.614 1.766z" fill="#007AFF"/><path d="M103.598 117.827l.902-11.72h7.5v12.043a4.207 4.207 0 1 1-8.402-.323z" fill="#007AFF"/><path d="M107.441 87.873a2.44 2.44 0 0 0-1.62 1.342 2.433 2.433 0 0 0 .035 2.104L107 93.607h-4.48a7.5 7.5 0 0 1-3.354-.792l-1.245-.623a1.5 1.5 0 0 0-2.171 1.342v3.528a2.5 2.5 0 0 0 1.382 2.236l2.034 1.017a7.496 7.496 0 0 0 3.354.792H112v-7.5l-1.712-4.28a2.427 2.427 0 0 0-2.847-1.454z" fill="#FFDCAD"/><path opacity=".1" d="M104.5 101.107h7.5v5h-7.5v-5z" fill="#007AFF"/><path opacity=".08" d="M158.714 122.305a3.792 3.792 0 0 1-4.214-2.517l-8.256-15.489a9.742 9.742 0 0 1-1.744 9.308v10h-22.089c10.317-6.738 19.022-15.288 26.328-33.088a7.488 7.488 0 0 1 3.891 4.067l9.073 22.821a3.793 3.793 0 0 1-2.989 4.898z" fill="#000"/><path d="M150.75 118.607l-12.5-2.5v-17.5l12.5 2.5v17.5z" fill="#494F71"/><path d="M155.75 118.607l12.5-2.5v-17.5l-12.5 2.5v17.5z" fill="#3F3D56"/><path d="M150.75 101.107h5v17.5h-5v-17.5z" fill="#454B69"/><path d="M153.25 101.107a4.429 4.429 0 0 0-3.699-4.367l-11.301-1.883v3.75l12.5 2.5h2.5a4.429 4.429 0 0 1 3.699-4.367l11.301-1.883v3.75l-12.5 2.5h-2.5z" fill="#FBE19F"/><path d="M165.955 118.488l-5 .833a1.255 1.255 0 0 1-1.339-.707 1.256 1.256 0 0 1-.116-.526v-4.646c0-.385.137-.758.385-1.052.249-.293.594-.489.974-.553l4.246-.708a1.639 1.639 0 0 1 1.32.364 1.63 1.63 0 0 1 .575 1.242v4.52a1.252 1.252 0 0 1-1.045 1.233z" fill="#FEC9A3"/><circle cx="132" cy="83" r="39.5" stroke="#F2F2F2"/></g><defs><filter id="filter0_d" x="0" y="0" width="264" height="163" filterUnits="userSpaceOnUse" color-interpolation-filters="sRGB"><feFlood flood-opacity="0" result="BackgroundImageFix"/><feColorMatrix in="SourceAlpha" values="0 0 0 0 0 0 0 0 0 0 0 0 0 0 0 0 0 0 127 0"/><feOffset/><feGaussianBlur stdDeviation="12"/><feColorMatrix values="0 0 0 0 0.341176 0 0 0 0 0.337255 0 0 0 0 0.807843 0 0 0 0.12 0"/><feBlend in2="BackgroundImageFix" result="effect1_dropShadow"/><feBlend in="SourceGraphic" in2="effect1_dropShadow" result="shape"/></filter><filter id="filter1_d" x="3" y="2" width="264" height="163" filterUnits="userSpaceOnUse" color-interpolation-filters="sRGB"><feFlood flood-opacity="0" result="BackgroundImageFix"/><feColorMatrix in="SourceAlpha" values="0 0 0 0 0 0 0 0 0 0 0 0 0 0 0 0 0 0 127 0"/><feOffset dx="3" dy="2"/><feGaussianBlur stdDeviation="12"/><feColorMatrix values="0 0 0 0 0 0 0 0 0 0 0 0 0 0 0 0 0 0 0.09 0"/><feBlend in2="BackgroundImageFix" result="effect1_dropShadow"/><feBlend in="SourceGraphic" in2="effect1_dropShadow" result="shape"/></filter></defs></svg>