<svg width="24" height="24" fill="none" xmlns="http://www.w3.org/2000/svg"><path fill-rule="evenodd" clip-rule="evenodd" d="M19.156 8.103c.104-.348 0-.603-.496-.603h-1.642c-.417 0-.61.22-.713.464 0 0-.835 2.034-2.017 3.355-.383.383-.556.505-.765.505-.104 0-.255-.122-.255-.47v-3.25c0-.418-.122-.604-.47-.604H10.22c-.26 0-.417.194-.417.377 0 .396.59.487.651 1.6v2.416c0 .53-.095.626-.304.626-.556 0-1.91-2.043-2.712-4.381-.157-.454-.315-.638-.734-.638H5.063c-.47 0-.563.22-.563.464 0 .435.556 2.59 2.59 5.442 1.356 1.947 3.267 3.002 5.005 3.002 1.044 0 1.173-.234 1.173-.638v-1.472c0-.468.098-.562.429-.562.243 0 .66.122 1.634 1.06 1.113 1.113 1.296 1.612 1.922 1.612h1.641c.469 0 .703-.234.568-.697-.148-.46-.68-1.13-1.384-1.923-.383-.452-.956-.939-1.13-1.182-.244-.313-.174-.452 0-.73 0 0 2-2.817 2.208-3.773z" fill="#A9ADB1"/></svg>