<svg width="24" height="24" fill="none" xmlns="http://www.w3.org/2000/svg"><path d="M16.673 7.83A6.204 6.204 0 0 0 12.257 6a6.25 6.25 0 0 0-6.243 6.24c0 1.1.287 2.174.833 3.12L6 18.5l3.27-.773a6.24 6.24 0 0 0 2.984.76h.002c3.44 0 6.241-2.8 6.243-6.24a6.201 6.201 0 0 0-1.826-4.417zm-1.362 6.641c-.13.365-.767.716-1.053.742-.286.026-.554.129-1.872-.39-1.585-.626-2.587-2.251-2.664-2.355-.078-.104-.637-.845-.637-1.613s.403-1.145.546-1.3a.572.572 0 0 1 .416-.196c.104 0 .209 0 .3.004.11.005.234.01.35.27.14.308.442 1.08.481 1.158.039.078.065.169.013.273-.052.104-.078.168-.155.26-.079.091-.164.203-.234.273-.078.077-.16.162-.069.318s.404.667.868 1.08c.596.531 1.098.696 1.254.774.156.079.247.065.338-.039a8.83 8.83 0 0 0 .494-.611c.104-.156.208-.13.351-.078.143.051.91.429 1.066.507.156.078.26.117.299.182.038.064.038.377-.092.741z" fill="#A9ADB1"/></svg>