<svg width="24" height="24" fill="none" xmlns="http://www.w3.org/2000/svg"><path fill-rule="evenodd" clip-rule="evenodd" d="M10.451 13.936V9.742l4.053 2.104-4.053 2.09zm8.899-4.921s-.147-1.029-.596-1.482c-.57-.595-1.21-.597-1.503-.632-2.1-.151-5.248-.151-5.248-.151h-.006s-3.149 0-5.248.151c-.293.035-.932.037-1.503.632-.45.453-.596 1.482-.596 1.482s-.15 1.208-.15 2.416v1.133c0 1.208.15 2.416.15 2.416s.146 1.029.596 1.482c.57.594 1.32.576 1.654.638 1.2.114 5.1.15 5.1.15s3.152-.005 5.25-.156c.294-.035.933-.038 1.504-.632.45-.453.596-1.482.596-1.482s.15-1.208.15-2.416V11.43c0-1.208-.15-2.416-.15-2.416z" fill="#A9ADB1"/></svg>