<svg width="216" height="115" viewBox="0 0 216 115" fill="none" xmlns="http://www.w3.org/2000/svg">
<mask id="mask0" mask-type="alpha" maskUnits="userSpaceOnUse" x="0" y="0" width="216" height="115">
<path fill-rule="evenodd" clip-rule="evenodd" d="M0 8C0 3.58172 3.58172 0 8 0H208C212.418 0 216 3.58172 216 8V107C216 111.418 212.418 115 208 115H8C3.58172 115 0 111.418 0 107V8Z" fill="#5756CE"/>
</mask>
<g mask="url(#mask0)">
<g filter="url(#filter0_d)">
<path fill-rule="evenodd" clip-rule="evenodd" d="M0 8C0 3.58172 3.58172 0 8 0H208C212.418 0 216 3.58172 216 8V107C216 111.418 212.418 115 208 115H8C3.58172 115 0 111.418 0 107V8Z" fill="#4CD964" fill-opacity="0.5"/>
</g>
<ellipse cx="132.56" cy="-26.3788" rx="96.6647" ry="90.9923" fill="#4CD964" fill-opacity="0.5"/>
<ellipse cx="189.866" cy="95.7345" rx="96.6647" ry="90.9923" fill="#4CD964"/>
</g>
<circle cx="108" cy="59" r="40" fill="white"/>
<mask id="mask1" mask-type="alpha" maskUnits="userSpaceOnUse" x="68" y="19" width="80" height="80">
<circle cx="108" cy="59" r="40" fill="#C4C4C4"/>
</mask>
<g mask="url(#mask1)">
<path d="M127.441 64.6459L127.028 68.3569L126.75 70.8569H91.7501L91.472 68.3569L91.0595 64.6459C90.6928 61.3432 91.188 58.0018 92.497 54.9475C93.65 52.2557 94.1737 49.3363 94.0282 46.4115L93.8111 42.0865C93.7066 39.9942 94.0286 37.9026 94.7573 35.9385C95.4861 33.9744 96.6064 32.179 98.0503 30.6612C99.4943 29.1434 101.232 27.935 103.157 27.1092C105.082 26.2835 107.155 25.8577 109.25 25.8577C111.345 25.8577 113.418 26.2835 115.343 27.1092C117.269 27.935 119.006 29.1434 120.45 30.6612C121.894 32.179 123.014 33.9744 123.743 35.9385C124.472 37.9026 124.794 39.9942 124.689 42.0865L124.472 46.4115C124.327 49.3363 124.85 52.2557 126.003 54.9475C127.313 58.0017 127.808 61.3432 127.441 64.6459Z" fill="#454B69"/>
<path opacity="0.1" d="M127.441 64.6459L127.028 68.3568H113V54.6068L115.5 49.6068V39.6068C115.498 36.5934 114.508 33.6638 112.681 31.2677C110.853 28.8716 108.29 27.1414 105.384 26.3427C107.732 25.7402 110.188 25.6974 112.555 26.2179C114.923 26.7384 117.134 27.8076 119.013 29.3394C120.891 30.8712 122.383 32.8228 123.369 35.0369C124.355 37.251 124.807 39.6657 124.689 42.0865L124.472 46.4115C124.326 49.3362 124.85 52.2556 126.003 54.9474C127.313 58.0017 127.808 61.3432 127.441 64.6459Z" fill="black"/>
<path d="M116 65.8568C115.77 65.8569 115.543 65.8118 115.33 65.7239C115.118 65.6359 114.925 65.507 114.762 65.3445C114.6 65.182 114.471 64.989 114.383 64.7767C114.295 64.5643 114.25 64.3367 114.25 64.1068V55.8568H104.25V64.1068C104.25 64.3367 104.205 64.5643 104.117 64.7767C104.029 64.989 103.9 65.182 103.738 65.3445C103.575 65.507 103.382 65.6359 103.17 65.7239C102.957 65.8118 102.73 65.8569 102.5 65.8568H100.5V73.3568H118V65.8568H116Z" fill="#FFDCAD"/>
<path d="M110.004 62.1068C111.552 62.0898 113.048 61.5498 114.25 60.5745V55.8568H104.25V60.574C105.452 61.5495 106.948 62.0897 108.496 62.1068H110.004Z" fill="#FEB784"/>
<path d="M120.5 42.1068V48.3568C120.5 51.3405 119.315 54.202 117.205 56.3118C115.095 58.4215 112.234 59.6068 109.25 59.6068C106.266 59.6068 103.405 58.4215 101.295 56.3118C99.1853 54.202 98 51.3405 98 48.3568V42.1068C100.458 40.469 102.445 38.2176 103.766 35.5756L104.25 34.6068L104.959 35.199C108.065 37.7871 111.645 39.7454 115.5 40.9646C117.132 41.482 118.805 41.8641 120.5 42.1068Z" fill="#FFDCAD"/>
<path d="M120.5 42.1068V48.3568C120.499 50.968 119.591 53.4978 117.93 55.5128C116.27 57.5278 113.96 58.9028 111.397 59.4021C112.698 58.1246 113.732 56.6002 114.436 54.9182C115.141 53.2362 115.502 51.4304 115.5 49.6068V40.9646C117.132 41.482 118.805 41.864 120.5 42.1068Z" fill="#FEC093"/>
<path d="M103.625 47.1068C103.254 47.1068 102.892 46.9968 102.583 46.7908C102.275 46.5848 102.035 46.292 101.893 45.9493C101.751 45.6067 101.714 45.2297 101.786 44.866C101.858 44.5023 102.037 44.1682 102.299 43.906C102.561 43.6438 102.895 43.4652 103.259 43.3928C103.623 43.3205 104 43.3576 104.343 43.4995C104.685 43.6415 104.978 43.8818 105.184 44.1901C105.39 44.4985 105.5 44.861 105.5 45.2318C105.499 45.7289 105.302 46.2055 104.95 46.557C104.599 46.9086 104.122 47.1063 103.625 47.1068Z" fill="#7A432A"/>
<path d="M114.875 47.1068C114.504 47.1068 114.142 46.9968 113.833 46.7908C113.525 46.5848 113.285 46.292 113.143 45.9493C113.001 45.6067 112.964 45.2297 113.036 44.866C113.108 44.5023 113.287 44.1682 113.549 43.906C113.811 43.6438 114.145 43.4652 114.509 43.3928C114.873 43.3205 115.25 43.3576 115.593 43.4995C115.935 43.6415 116.228 43.8818 116.434 44.1901C116.64 44.4985 116.75 44.861 116.75 45.2318C116.749 45.7289 116.552 46.2055 116.2 46.557C115.849 46.9086 115.372 47.1063 114.875 47.1068Z" fill="#7A432A"/>
<path d="M109.25 56.4636C108.256 56.4625 107.303 56.0671 106.6 55.364C106.195 54.9593 105.892 54.4717 105.708 53.9411C105.481 53.2888 106.06 52.7136 106.751 52.7136H107.018C107.56 52.7136 107.983 53.2141 108.366 53.5975C108.601 53.8319 108.918 53.9636 109.25 53.9636C109.582 53.9636 109.899 53.8319 110.134 53.5975C110.517 53.2141 110.94 52.7136 111.482 52.7136H111.749C112.44 52.7136 113.019 53.2888 112.792 53.9411C112.608 54.4717 112.305 54.9593 111.9 55.364C111.197 56.0671 110.244 56.4625 109.25 56.4636Z" fill="#C06100"/>
<path d="M134.714 98.3053C133.827 98.4529 132.917 98.281 132.145 97.82C131.373 97.3589 130.79 96.6389 130.5 95.7881L122.244 80.299C122.77 81.8706 122.885 83.5504 122.58 85.1792C122.275 86.8081 121.559 88.3321 120.5 89.6068V99.6068H98.0001V89.6068C96.9258 88.3174 96.2026 86.7724 95.9004 85.1216C95.5982 83.4707 95.7273 81.7698 96.2751 80.1834L87.8845 95.7881C87.5624 96.7351 86.8792 97.5166 85.9837 97.9623C85.0882 98.4081 84.0528 98.4819 83.1031 98.1679C82.1533 97.8539 81.3661 97.1773 80.9128 96.2856C80.4596 95.3939 80.3769 94.3592 80.6829 93.4068L89.861 70.5615C90.4187 69.1721 91.3796 67.9815 92.62 67.143C93.8603 66.3045 95.3233 65.8565 96.8204 65.8568H101.75L109.25 79.6068L116.75 65.8568H121.661C123.162 65.8579 124.629 66.3091 125.871 67.1522C127.114 67.9953 128.074 69.1916 128.63 70.5865L137.703 93.4068C137.869 93.9253 137.921 94.4733 137.856 95.0138C137.792 95.5542 137.611 96.0744 137.328 96.539C137.044 97.0036 136.664 97.4018 136.213 97.7066C135.762 98.0114 135.251 98.2155 134.714 98.3053Z" fill="#007AFF"/>
<path d="M79.5985 93.8271L80.5 82.1068H88V94.1498C88 95.2656 87.5568 96.3356 86.7678 97.1246C85.9788 97.9136 84.9088 98.3568 83.793 98.3568C83.2133 98.3568 82.6399 98.237 82.1087 98.005C81.5776 97.7729 81.1001 97.4336 80.7062 97.0083C80.3124 96.5829 80.0107 96.0808 79.82 95.5334C79.6294 94.986 79.554 94.4051 79.5985 93.8271Z" fill="#007AFF"/>
<path d="M83.4408 63.8725C83.0875 63.9608 82.7586 64.1273 82.4783 64.3598C82.198 64.5922 81.9735 64.8846 81.8214 65.2154C81.6692 65.5462 81.5933 65.907 81.5992 66.2711C81.6052 66.6351 81.6928 66.9932 81.8556 67.3189L83 69.6069H78.5205C77.3562 69.6069 76.2078 69.3358 75.1664 68.8152L73.9208 68.1923C73.6921 68.078 73.438 68.024 73.1826 68.0355C72.9272 68.047 72.6789 68.1236 72.4614 68.258C72.2439 68.3924 72.0644 68.5802 71.9399 68.8035C71.8154 69.0268 71.75 69.2782 71.75 69.5339V73.0617C71.75 73.526 71.8793 73.9811 72.1234 74.3761C72.3675 74.771 72.7168 75.0902 73.132 75.2978L75.1664 76.3152C76.2078 76.8358 77.3562 77.1069 78.5205 77.1069H88V69.6069L86.2883 65.3277C86.0698 64.7818 85.6609 64.3337 85.1374 64.0662C84.6139 63.7986 84.0111 63.7298 83.4408 63.8725Z" fill="#FFDCAD"/>
<path opacity="0.1" d="M80.5 77.1068H88V82.1068H80.5V77.1068Z" fill="#007AFF"/>
<path opacity="0.08" d="M134.714 98.305C133.827 98.4527 132.917 98.2807 132.145 97.8197C131.373 97.3587 130.79 96.6386 130.5 95.7878L122.244 80.2987C122.769 81.8703 122.885 83.5501 122.58 85.179C122.275 86.8078 121.559 88.3318 120.5 89.6065V99.6065H98.411C108.728 92.869 117.433 84.319 124.739 66.519C126.516 67.3172 127.911 68.7761 128.63 70.5862L137.703 93.4065C137.869 93.925 137.921 94.473 137.856 95.0135C137.792 95.5539 137.611 96.0741 137.328 96.5387C137.044 97.0034 136.664 97.4016 136.213 97.7063C135.762 98.0111 135.251 98.2153 134.714 98.305Z" fill="black"/>
<path d="M126.75 94.6068L114.25 92.1068V74.6068L126.75 77.1068V94.6068Z" fill="#494F71"/>
<path d="M131.75 94.6068L144.25 92.1068V74.6068L131.75 77.1068V94.6068Z" fill="#3F3D56"/>
<path d="M126.75 77.1068H131.75V94.6068H126.75V77.1068Z" fill="#454B69"/>
<path d="M129.25 77.1068C129.25 76.0589 128.878 75.0451 128.201 74.2455C127.524 73.4459 126.585 72.9126 125.551 72.7402L114.25 70.8568V74.6068L126.75 77.1068H129.25C129.25 76.0589 129.622 75.0451 130.299 74.2455C130.976 73.4459 131.915 72.9126 132.949 72.7402L144.25 70.8568V74.6068L131.75 77.1068H129.25Z" fill="#FBE19F"/>
<path d="M141.955 94.4878L136.955 95.3212C136.776 95.351 136.593 95.3415 136.418 95.2933C136.243 95.2451 136.081 95.1593 135.942 95.042C135.804 94.9246 135.692 94.7785 135.616 94.6138C135.54 94.4491 135.5 94.2698 135.5 94.0882V89.4421C135.5 89.057 135.637 88.6843 135.885 88.3905C136.134 88.0966 136.479 87.9005 136.859 87.8371L141.105 87.1295C141.338 87.0906 141.577 87.1029 141.805 87.1657C142.033 87.2284 142.244 87.3401 142.425 87.4929C142.605 87.6456 142.75 87.8359 142.849 88.0503C142.949 88.2648 143 88.4983 143 88.7346V93.2548C143 93.5507 142.895 93.837 142.704 94.0628C142.512 94.2885 142.247 94.4391 141.955 94.4878Z" fill="#FEC9A3"/>
<circle cx="108" cy="59" r="39.5" stroke="#F2F2F2"/>
</g>
<defs>
<filter id="filter0_d" x="-21" y="-22" width="264" height="163" filterUnits="userSpaceOnUse" color-interpolation-filters="sRGB">
<feFlood flood-opacity="0" result="BackgroundImageFix"/>
<feColorMatrix in="SourceAlpha" type="matrix" values="0 0 0 0 0 0 0 0 0 0 0 0 0 0 0 0 0 0 127 0"/>
<feOffset dx="3" dy="2"/>
<feGaussianBlur stdDeviation="12"/>
<feColorMatrix type="matrix" values="0 0 0 0 0 0 0 0 0 0 0 0 0 0 0 0 0 0 0.09 0"/>
<feBlend mode="normal" in2="BackgroundImageFix" result="effect1_dropShadow"/>
<feBlend mode="normal" in="SourceGraphic" in2="effect1_dropShadow" result="shape"/>
</filter>
</defs>
</svg>
