<svg width="216" height="115" viewBox="0 0 216 115" fill="none" xmlns="http://www.w3.org/2000/svg">
<mask id="mask0" mask-type="alpha" maskUnits="userSpaceOnUse" x="0" y="0" width="216" height="115">
<path fill-rule="evenodd" clip-rule="evenodd" d="M0 8C0 3.58172 3.58172 0 8 0H208C212.418 0 216 3.58172 216 8V107C216 111.418 212.418 115 208 115H8C3.58172 115 0 111.418 0 107V8Z" fill="#5756CE"/>
</mask>
<g mask="url(#mask0)">
<g filter="url(#filter0_d)">
<path fill-rule="evenodd" clip-rule="evenodd" d="M0 8C0 3.58172 3.58172 0 8 0H208C212.418 0 216 3.58172 216 8V107C216 111.418 212.418 115 208 115H8C3.58172 115 0 111.418 0 107V8Z" fill="#007AFF" fill-opacity="0.5"/>
</g>
<ellipse cx="132.56" cy="-26.3788" rx="96.6647" ry="90.9923" fill="#007AFF" fill-opacity="0.5"/>
<ellipse cx="189.866" cy="95.7345" rx="96.6647" ry="90.9923" fill="#007AFF" fill-opacity="0.5"/>
</g>
<circle cx="108" cy="59" r="40" fill="white"/>
<mask id="mask1" mask-type="alpha" maskUnits="userSpaceOnUse" x="68" y="19" width="80" height="80">
<circle cx="108" cy="59" r="40" fill="#C4C4C4"/>
</mask>
<g mask="url(#mask1)">
<path d="M126.345 38.1232C126.345 43.1081 122.303 47.1495 117.318 47.1495C112.333 47.1495 108.292 43.1081 108.292 38.1232C108.292 33.1383 112.333 29.0969 117.318 29.0969C122.303 29.0969 126.345 33.1383 126.345 38.1232Z" fill="#3C3B41"/>
<path d="M127.931 93.3365V101.787C127.931 102.392 127.439 102.883 126.835 102.883H92.999C92.3944 102.883 91.9023 102.392 91.9023 101.787V93.3365C91.9023 89.0542 94.7159 85.2796 98.8215 84.0575L100.768 83.4782C101.754 83.1855 102.57 82.5454 103.092 81.715C103.317 81.3615 103.486 80.9736 103.594 80.5638C103.686 80.2221 103.734 79.8641 103.734 79.4987V75.5592L115.137 73.6418V79.2122C115.137 80.2711 115.54 81.2591 116.219 82.0044C116.716 82.551 117.363 82.9687 118.105 83.1917L121.014 84.0575C125.12 85.2802 127.931 89.0542 127.931 93.3365Z" fill="#FFDBA9"/>
<path d="M121.014 84.0575L118.105 83.1917C117.363 82.9687 116.716 82.551 116.219 82.0044C115.54 81.2591 115.137 80.2711 115.137 79.2122V73.6418L103.734 75.5592V77.815L110.915 76.6074V82.1778C110.915 83.2367 111.318 84.2247 111.997 84.97C112.494 85.5166 113.141 85.9343 113.883 86.1573L116.791 87.0231C120.897 88.2458 123.709 92.0198 123.709 96.3021V102.883H126.835C127.44 102.883 127.931 102.392 127.931 101.787V93.3365C127.931 89.0542 125.12 85.2802 121.014 84.0575Z" fill="#FFC473"/>
<path d="M115.137 73.6418V78.8688C113.134 80.252 110.705 81.0598 108.088 81.0598H107.082C105.871 81.0598 104.701 80.8875 103.594 80.5638C103.686 80.2221 103.734 79.8641 103.734 79.4987V75.5592L115.137 73.6418Z" fill="#FFC473"/>
<path d="M120.527 42.6482V64.759C120.527 71.6286 114.958 77.1979 108.088 77.1979H107.082C100.214 77.1979 94.6445 71.6292 94.6445 64.759V42.6482H120.527Z" fill="#FFDBA9"/>
<path d="M120.986 62.3062H120.526V54.0494H120.986C123.266 54.0494 125.115 55.8982 125.115 58.1775C125.115 60.4574 123.266 62.3062 120.986 62.3062Z" fill="#FFC473"/>
<path d="M101.238 56.5051C101.238 57.2155 100.662 57.7914 99.9514 57.7914C99.241 57.7914 98.6656 57.2155 98.6656 56.5051C98.6656 55.7946 99.241 55.2188 99.9514 55.2188C100.662 55.2188 101.238 55.7946 101.238 56.5051Z" fill="#57555C"/>
<path d="M111.528 56.5051C111.528 57.2155 110.952 57.7914 110.242 57.7914C109.532 57.7914 108.956 57.2155 108.956 56.5051C108.956 55.7946 109.532 55.2188 110.242 55.2188C110.952 55.2188 111.528 55.7946 111.528 56.5051Z" fill="#57555C"/>
<path d="M104.79 70.333C103.623 70.333 102.693 70.0076 102.242 69.8139C101.677 69.5708 101.417 68.9149 101.66 68.3503C101.903 67.7845 102.559 67.5244 103.124 67.7676C103.577 67.9624 104.777 68.3627 106.125 67.8695C107.155 67.4918 107.769 66.7678 108.044 66.3704C108.393 65.8638 109.087 65.7365 109.593 66.0861C110.099 66.4357 110.227 67.1293 109.877 67.6359C109.453 68.2512 108.5 69.3715 106.891 69.9614C106.146 70.2345 105.432 70.333 104.79 70.333Z" fill="#C06100"/>
<path d="M102.426 61.0373H94.8037C93.8996 61.0373 93.1638 60.3015 93.1638 59.3968V54.0612C93.1638 53.1566 93.8996 52.4214 94.8037 52.4214H102.426C103.33 52.4214 104.066 53.1566 104.066 54.0612V59.3968C104.066 60.3015 103.33 61.0373 102.426 61.0373ZM95.392 58.8091H101.838V54.6495H95.392V58.8091Z" fill="#7047F0"/>
<path d="M115.667 61.0378H107.536C106.632 61.0378 105.897 60.302 105.897 59.3973V54.0617C105.897 53.1571 106.632 52.4219 107.536 52.4219H115.667C116.571 52.4219 117.307 53.1571 117.307 54.0617V59.3973C117.307 60.302 116.571 61.0378 115.667 61.0378ZM108.125 58.8096H115.079V54.65H108.125V58.8096Z" fill="#7047F0"/>
<path d="M107.01 56.5239H102.952C102.336 56.5239 101.838 56.0251 101.838 55.4098C101.838 54.794 102.336 54.2958 102.952 54.2958H107.01C107.626 54.2958 108.125 54.794 108.125 55.4098C108.125 56.0251 107.626 56.5239 107.01 56.5239Z" fill="#7047F0"/>
<path d="M120.526 52.4211V54.6493H115.632C115.016 54.6493 114.518 54.1505 114.518 53.5352C114.518 52.9205 115.016 52.4211 115.632 52.4211H120.526Z" fill="#7047F0"/>
<path d="M121.779 47.6037C121.802 49.2543 121.547 50.8418 121.057 52.3212C120.738 53.2855 119.316 53.0699 119.294 52.0538C119.294 52.0065 119.292 51.9592 119.291 51.9114C119.112 47.0616 115.189 43.1075 110.341 42.8964C106.088 42.7106 102.425 45.3621 101.089 49.1175C101.071 49.1631 101.056 49.2092 101.04 49.2554C100.065 52.0003 97.9316 54.1975 95.2283 55.2581C94.0923 55.7051 92.8516 55.9488 91.5562 55.9488C90.8897 55.9488 90.2389 55.8846 89.609 55.7602C91.2461 54.3652 92.4806 52.4625 92.9839 50.2906C93.0818 49.869 93.1516 49.435 93.1922 48.9936C93.1595 48.6063 93.1432 48.2123 93.1432 47.8143C93.1432 47.5378 93.1505 47.262 93.168 46.9901V46.9856C93.2085 46.2965 93.2957 45.6205 93.428 44.9607C93.9972 42.1431 95.395 39.624 97.3568 37.6705C100.013 35.0247 103.701 33.4164 107.762 33.4997C115.432 33.6573 121.669 39.933 121.779 47.6037Z" fill="#57555C"/>
<path d="M101.824 42.0586C100.817 42.201 97.3821 42.8951 95.4675 45.8911C95.2108 46.2936 94.9788 46.8324 94.7323 47.4032C94.2971 48.4176 93.813 49.5435 92.9838 50.2905C93.0817 49.8689 93.1521 49.4349 93.1921 48.9941C93.1594 48.6062 93.1431 48.2127 93.1431 47.8147C93.1431 47.5383 93.1504 47.2619 93.1684 46.99V46.9855C93.2084 46.2964 93.2956 45.6203 93.4279 44.9611C93.4803 44.8688 93.5338 44.7782 93.5901 44.6904C96.0175 40.8922 100.269 40.028 101.514 39.8524C102.122 39.7663 102.686 40.1913 102.772 40.8004C102.857 41.4112 102.433 41.9741 101.824 42.0586Z" fill="#3C3B41"/>
<path d="M121.014 84.058L118.319 83.2546V102.883H126.835C127.44 102.883 127.931 102.392 127.931 101.787V93.337C127.931 89.0547 125.118 85.2807 121.014 84.058Z" fill="#007AFF"/>
<path d="M121.014 84.0578L119.184 83.5123L118.319 83.255V87.6229C121.578 89.2329 123.709 92.5746 123.709 96.3018V102.883H126.835C126.986 102.883 127.13 102.852 127.262 102.797C127.654 102.63 127.931 102.24 127.931 101.787V93.3362C127.931 92.4226 127.802 91.532 127.56 90.6842C126.67 87.5599 124.242 85.0193 121.014 84.0578Z" fill="#0070EB"/>
<path d="M100.227 83.6392L98.8209 84.058C94.7165 85.2807 91.9023 89.0547 91.9023 93.337V101.787C91.9023 102.392 92.3938 102.883 92.9995 102.883H100.227V83.6392H100.227Z" fill="#007DFF"/>
<path d="M100.227 91.2283H118.319V102.883H100.227V91.2283Z" fill="#F2F2F2"/>
<circle cx="108" cy="59" r="39.5" stroke="#F2F2F2"/>
</g>
<defs>
<filter id="filter0_d" x="-21" y="-22" width="264" height="163" filterUnits="userSpaceOnUse" color-interpolation-filters="sRGB">
<feFlood flood-opacity="0" result="BackgroundImageFix"/>
<feColorMatrix in="SourceAlpha" type="matrix" values="0 0 0 0 0 0 0 0 0 0 0 0 0 0 0 0 0 0 127 0"/>
<feOffset dx="3" dy="2"/>
<feGaussianBlur stdDeviation="12"/>
<feColorMatrix type="matrix" values="0 0 0 0 0 0 0 0 0 0 0 0 0 0 0 0 0 0 0.09 0"/>
<feBlend mode="normal" in2="BackgroundImageFix" result="effect1_dropShadow"/>
<feBlend mode="normal" in="SourceGraphic" in2="effect1_dropShadow" result="shape"/>
</filter>
</defs>
</svg>
