<svg width="24" height="24" viewBox="0 0 24 24" fill="none" xmlns="http://www.w3.org/2000/svg">
<path fill-rule="evenodd" clip-rule="evenodd" d="M17.1634 12.5902C17.1634 9.92598 19.4212 8.69933 19.4212 8.69933C19.4212 8.69933 17.9414 6.45703 15.627 6.45703C13.91 6.45703 12.9992 7.46288 11.8416 7.46288C10.4662 7.46288 9.75467 6.45703 8.04657 6.45703C6.1021 6.45703 3 8.21113 3 12.5902C3 16.8066 6.06405 21.9912 8.43595 21.9912C9.67857 21.9912 10.229 21.1767 11.8602 21.1767C13.7391 21.1767 13.8339 21.9912 15.2473 21.9912C17.7609 21.9912 20 16.6725 20 16.6725C20 16.6725 17.1634 15.7525 17.1634 12.5902ZM15.232 1.99219C13.4681 2.13611 10.9634 3.97608 11.305 6.7074C13.6292 6.79327 15.5736 4.13881 15.232 1.99219Z" fill="black"/>
</svg>
