<svg width="100" height="22" viewBox="0 0 100 22" fill="none" xmlns="http://www.w3.org/2000/svg">
<path d="M0 0.891552H3.15876V7.651H3.20087C3.56588 7.16118 4.02917 6.81831 4.59073 6.62239C5.16632 6.41247 5.78403 6.30751 6.44386 6.30751C7.17389 6.30751 7.8267 6.46145 8.40229 6.76933C8.97789 7.06322 9.46223 7.46207 9.85532 7.96588C10.2624 8.46969 10.5713 9.05047 10.7819 9.70822C11.0065 10.352 11.1188 11.0307 11.1188 11.7445C11.1188 12.5142 10.9995 13.2209 10.7608 13.8646C10.5222 14.5084 10.1782 15.0682 9.72897 15.544C9.29376 16.0058 8.7673 16.3697 8.14959 16.6356C7.53188 16.8875 6.84397 17.0135 6.08587 17.0135C5.72086 17.0135 5.3769 16.9645 5.05401 16.8665C4.73111 16.7686 4.42928 16.6426 4.1485 16.4887C3.88176 16.3347 3.6431 16.1668 3.43251 15.9848C3.23597 15.7889 3.07452 15.6 2.94817 15.4181H2.90606V16.7616H0V0.891552ZM2.90606 11.6605C2.90606 12.4302 3.12366 13.053 3.55887 13.5288C4.00811 14.0046 4.63284 14.2425 5.43306 14.2425C6.23328 14.2425 6.85099 14.0046 7.2862 13.5288C7.73544 13.053 7.96007 12.4302 7.96007 11.6605C7.96007 10.8908 7.73544 10.268 7.2862 9.79219C6.85099 9.31637 6.23328 9.07846 5.43306 9.07846C4.63284 9.07846 4.00811 9.31637 3.55887 9.79219C3.12366 10.268 2.90606 10.8908 2.90606 11.6605Z" fill="#A9ADB1"/>
<path d="M22.8248 16.7616H19.7924V15.3761H19.7503C19.638 15.572 19.4906 15.7679 19.3081 15.9639C19.1396 16.1598 18.929 16.3347 18.6763 16.4887C18.4236 16.6426 18.1358 16.7686 17.8129 16.8665C17.49 16.9645 17.139 17.0135 16.76 17.0135C15.9598 17.0135 15.307 16.8945 14.8016 16.6566C14.3102 16.4047 13.9241 16.0618 13.6434 15.628C13.3766 15.1941 13.1941 14.6833 13.0958 14.0956C13.0116 13.5078 12.9695 12.871 12.9695 12.1853V6.55941H16.1282V11.5555C16.1282 11.8494 16.1353 12.1573 16.1493 12.4792C16.1774 12.7871 16.2406 13.0739 16.3388 13.3398C16.4511 13.6057 16.6126 13.8227 16.8232 13.9906C17.0478 14.1585 17.3637 14.2425 17.7708 14.2425C18.1779 14.2425 18.5078 14.1725 18.7605 14.0326C19.0132 13.8786 19.2028 13.6827 19.3291 13.4448C19.4695 13.1929 19.5608 12.913 19.6029 12.6051C19.645 12.2972 19.6661 11.9754 19.6661 11.6395V6.55941H22.8248V16.7616Z" fill="#A9ADB1"/>
<path d="M35.8014 15.9009C35.8014 17.8321 35.31 19.2946 34.3273 20.2882C33.3586 21.2958 31.8775 21.7997 29.884 21.7997C28.9714 21.7997 28.073 21.6947 27.1885 21.4848C26.304 21.2888 25.4898 20.897 24.7457 20.3092L26.4936 17.7062C26.9849 18.112 27.4974 18.4339 28.0308 18.6718C28.5784 18.9097 29.175 19.0287 29.8208 19.0287C30.7895 19.0287 31.4984 18.7908 31.9477 18.315C32.411 17.8531 32.6426 17.2584 32.6426 16.5306V15.544H32.6005C32.2355 16.0338 31.7792 16.3837 31.2317 16.5936C30.6982 16.7895 30.1928 16.8875 29.7155 16.8875C28.9574 16.8875 28.2695 16.7616 27.6518 16.5097C27.0341 16.2438 26.5006 15.8799 26.0513 15.4181C25.6161 14.9422 25.2792 14.3825 25.0405 13.7387C24.8019 13.0949 24.6826 12.3882 24.6826 11.6185C24.6826 10.9468 24.7878 10.289 24.9984 9.64524C25.2231 9.00149 25.5319 8.4347 25.925 7.94489C26.3321 7.45507 26.8235 7.06322 27.3991 6.76933C27.9747 6.46145 28.6275 6.30751 29.3575 6.30751C29.8068 6.30751 30.2139 6.35649 30.5789 6.45445C30.9579 6.55241 31.2949 6.67837 31.5897 6.83231C31.8845 6.98625 32.1372 7.16118 32.3478 7.35711C32.5584 7.53904 32.7268 7.72097 32.8532 7.9029H32.8953V6.55941H35.8014V15.9009ZM27.8413 11.5975C27.8413 11.9334 27.9045 12.2553 28.0308 12.5631C28.1572 12.857 28.3327 13.1229 28.5573 13.3608C28.796 13.5848 29.0627 13.7667 29.3575 13.9066C29.6664 14.0466 30.0033 14.1166 30.3683 14.1166C30.7193 14.1166 31.0492 14.0466 31.3581 13.9066C31.6669 13.7667 31.9337 13.5848 32.1583 13.3608C32.3969 13.1229 32.5794 12.857 32.7058 12.5631C32.8321 12.2553 32.8953 11.9334 32.8953 11.5975C32.8953 11.2616 32.8321 10.9468 32.7058 10.6529C32.5794 10.345 32.3969 10.0791 32.1583 9.85516C31.9337 9.61725 31.6669 9.42833 31.3581 9.28838C31.0492 9.14843 30.7193 9.07846 30.3683 9.07846C30.0033 9.07846 29.6664 9.14843 29.3575 9.28838C29.0627 9.42833 28.796 9.61725 28.5573 9.85516C28.3327 10.0791 28.1572 10.345 28.0308 10.6529C27.9045 10.9468 27.8413 11.2616 27.8413 11.5975Z" fill="#A9ADB1"/>
<path d="M38.368 6.55941H41.5268V16.7616H38.368V6.55941ZM38.1153 3.34762C38.1153 2.84381 38.2908 2.41698 38.6418 2.06711C39.0068 1.70325 39.442 1.52132 39.9474 1.52132C40.4528 1.52132 40.881 1.70325 41.232 2.06711C41.597 2.41698 41.7795 2.84381 41.7795 3.34762C41.7795 3.85143 41.597 4.28527 41.232 4.64913C40.881 4.999 40.4528 5.17393 39.9474 5.17393C39.442 5.17393 39.0068 4.999 38.6418 4.64913C38.2908 4.28527 38.1153 3.85143 38.1153 3.34762Z" fill="#A9ADB1"/>
<path d="M43.7962 6.55941H46.8286V7.94489H46.8707C46.9689 7.74896 47.1093 7.55304 47.2918 7.35711C47.4743 7.16118 47.692 6.98625 47.9447 6.83231C48.1974 6.67837 48.4851 6.55241 48.808 6.45445C49.1309 6.35649 49.4819 6.30751 49.861 6.30751C50.6612 6.30751 51.307 6.43346 51.7983 6.68536C52.2897 6.92327 52.6687 7.25915 52.9355 7.69298C53.2163 8.12682 53.4058 8.63763 53.5041 9.2254C53.6023 9.81318 53.6515 10.4499 53.6515 11.1357V16.7616H50.4927V11.7654C50.4927 11.4716 50.4787 11.1707 50.4506 10.8628C50.4366 10.5409 50.3734 10.247 50.2611 9.98112C50.1628 9.71522 50.0014 9.4983 49.7767 9.33036C49.5661 9.16243 49.2573 9.07846 48.8502 9.07846C48.443 9.07846 48.1131 9.15543 47.8604 9.30937C47.6077 9.44932 47.4112 9.64524 47.2708 9.89715C47.1444 10.1351 47.0602 10.408 47.0181 10.7158C46.976 11.0237 46.9549 11.3456 46.9549 11.6815V16.7616H43.7962V6.55941Z" fill="#A9ADB1"/>
<path d="M55.9514 14.9562C55.9514 14.6903 56.0006 14.4384 56.0988 14.2005C56.1971 13.9626 56.3305 13.7597 56.499 13.5918C56.6815 13.4098 56.892 13.2699 57.1307 13.1719C57.3694 13.0739 57.6221 13.025 57.8888 13.025C58.1555 13.025 58.4082 13.0739 58.6469 13.1719C58.8856 13.2699 59.0891 13.4098 59.2576 13.5918C59.4401 13.7597 59.5805 13.9626 59.6788 14.2005C59.777 14.4384 59.8262 14.6903 59.8262 14.9562C59.8262 15.2221 59.777 15.474 59.6788 15.712C59.5805 15.9499 59.4401 16.1598 59.2576 16.3417C59.0891 16.5097 58.8856 16.6426 58.6469 16.7406C58.4082 16.8385 58.1555 16.8875 57.8888 16.8875C57.6221 16.8875 57.3694 16.8385 57.1307 16.7406C56.892 16.6426 56.6815 16.5097 56.499 16.3417C56.3305 16.1598 56.1971 15.9499 56.0988 15.712C56.0006 15.474 55.9514 15.2221 55.9514 14.9562Z" fill="#A9ADB1"/>
<path d="M67.9105 9.56128C67.4472 8.98749 66.8365 8.7006 66.0784 8.7006C65.8116 8.7006 65.5519 8.76358 65.2992 8.88953C65.0465 9.01548 64.9202 9.2324 64.9202 9.54028C64.9202 9.79219 65.0465 9.98112 65.2992 10.1071C65.566 10.219 65.8959 10.324 66.289 10.422C66.6961 10.5059 67.1243 10.6039 67.5735 10.7158C68.0368 10.8138 68.465 10.9747 68.8581 11.1987C69.2652 11.4226 69.5951 11.7305 69.8478 12.1223C70.1146 12.5002 70.2479 13.011 70.2479 13.6547C70.2479 14.3125 70.1005 14.8583 69.8057 15.2921C69.5249 15.712 69.1599 16.0548 68.7107 16.3207C68.2614 16.5726 67.756 16.7476 67.1945 16.8455C66.6329 16.9575 66.0784 17.0135 65.5309 17.0135C64.8149 17.0135 64.0919 16.9155 63.3619 16.7196C62.6318 16.5096 62.0141 16.1458 61.5087 15.628L63.425 13.5078C63.7198 13.8716 64.0427 14.1515 64.3937 14.3475C64.7587 14.5294 65.1799 14.6204 65.6572 14.6204C66.0222 14.6204 66.3521 14.5714 66.647 14.4734C66.9418 14.3615 67.0892 14.1655 67.0892 13.8856C67.0892 13.6197 66.9558 13.4238 66.6891 13.2979C66.4364 13.1579 66.1065 13.046 65.6993 12.962C65.3062 12.864 64.8781 12.7661 64.4148 12.6681C63.9655 12.5561 63.5373 12.3952 63.1302 12.1853C62.7371 11.9754 62.4072 11.6815 62.1405 11.3036C61.8878 10.9118 61.7614 10.394 61.7614 9.75021C61.7614 9.14843 61.8807 8.63063 62.1194 8.19679C62.3721 7.76296 62.695 7.40609 63.0881 7.1262C63.4952 6.8463 63.9585 6.64338 64.4779 6.51743C64.9974 6.37748 65.5238 6.30751 66.0573 6.30751C66.7312 6.30751 67.4121 6.40547 68.1 6.60139C68.7879 6.79732 69.3705 7.14719 69.8478 7.651L67.9105 9.56128Z" fill="#A9ADB1"/>
<path d="M71.4881 11.6605C71.4881 10.8488 71.6355 10.1141 71.9303 9.45632C72.2251 8.79856 72.6252 8.23878 73.1306 7.77695C73.6501 7.30113 74.2538 6.93727 74.9417 6.68536C75.6436 6.43346 76.3877 6.30751 77.1738 6.30751C77.96 6.30751 78.6971 6.43346 79.385 6.68536C80.0869 6.93727 80.6906 7.30113 81.196 7.77695C81.7154 8.23878 82.1226 8.79856 82.4174 9.45632C82.7122 10.1141 82.8596 10.8488 82.8596 11.6605C82.8596 12.4722 82.7122 13.2069 82.4174 13.8646C82.1226 14.5224 81.7154 15.0892 81.196 15.565C80.6906 16.0268 80.0869 16.3837 79.385 16.6356C78.6971 16.8875 77.96 17.0135 77.1738 17.0135C76.3877 17.0135 75.6436 16.8875 74.9417 16.6356C74.2538 16.3837 73.6501 16.0268 73.1306 15.565C72.6252 15.0892 72.2251 14.5224 71.9303 13.8646C71.6355 13.2069 71.4881 12.4722 71.4881 11.6605ZM74.6468 11.6605C74.6468 12.4302 74.8644 13.053 75.2996 13.5288C75.7489 14.0046 76.3736 14.2425 77.1738 14.2425C77.9741 14.2425 78.5918 14.0046 79.027 13.5288C79.4762 13.053 79.7008 12.4302 79.7008 11.6605C79.7008 10.8908 79.4762 10.268 79.027 9.79219C78.5918 9.31637 77.9741 9.07846 77.1738 9.07846C76.3736 9.07846 75.7489 9.31637 75.2996 9.79219C74.8644 10.268 74.6468 10.8908 74.6468 11.6605Z" fill="#A9ADB1"/>
<path d="M85.8152 9.07846H83.7304V6.55941H85.8152V4.75409C85.8152 4.1943 85.8643 3.6695 85.9626 3.17969C86.0609 2.67588 86.2504 2.23504 86.5312 1.85719C86.8119 1.47933 87.2121 1.18544 87.7315 0.975521C88.265 0.751606 88.9599 0.639648 89.8163 0.639648C90.1392 0.639648 90.455 0.653643 90.7639 0.681632C91.0728 0.709621 91.3746 0.758602 91.6694 0.828576L91.522 3.49457C91.3395 3.4246 91.171 3.37561 91.0166 3.34762C90.8622 3.30564 90.6867 3.28465 90.4901 3.28465C89.9847 3.28465 89.6057 3.39661 89.353 3.62052C89.1003 3.83044 88.9739 4.27128 88.9739 4.94302V6.55941H91.3114V9.07846H88.9739V16.7616H85.8152V9.07846Z" fill="#A9ADB1"/>
<path d="M99.4845 9.07846H96.7048V12.4792C96.7048 12.7591 96.7189 13.018 96.7469 13.2559C96.775 13.4798 96.8382 13.6757 96.9365 13.8437C97.0347 14.0116 97.1822 14.1445 97.3787 14.2425C97.5893 14.3265 97.863 14.3685 98.2 14.3685C98.3684 14.3685 98.586 14.3545 98.8528 14.3265C99.1336 14.2845 99.3441 14.2005 99.4845 14.0746V16.6986C99.1336 16.8245 98.7685 16.9085 98.3895 16.9505C98.0104 16.9925 97.6384 17.0135 97.2734 17.0135C96.7399 17.0135 96.2486 16.9575 95.7993 16.8455C95.3501 16.7336 94.957 16.5586 94.62 16.3207C94.2831 16.0688 94.0164 15.7469 93.8198 15.3551C93.6373 14.9632 93.5461 14.4874 93.5461 13.9276V9.07846H91.5245V6.55941H93.5461V3.53655H96.7048V6.55941H99.4845V9.07846Z" fill="#A9ADB1"/>
</svg>
