<svg width="24" height="24" viewBox="0 0 24 24" fill="none" xmlns="http://www.w3.org/2000/svg">
<path d="M5.41602 2L13.2969 10.207L15.627 7.78125C11.612 5.51025 6.30202 2.506 5.41602 2ZM3.14062 2.51953C3.05562 2.71753 3 2.93478 3 3.17578V20.2637C3 20.4607 3.04438 20.6425 3.10938 20.8125L11.9102 11.6504L3.14062 2.51953ZM17.4238 8.79883L14.6836 11.6504L17.4023 14.4824C19.0713 13.5374 20.2266 12.8828 20.2266 12.8828C20.7256 12.5798 21.005 12.1135 20.998 11.6055C20.991 11.1105 20.7026 10.6538 20.2246 10.3828C20.1596 10.3458 19.0318 9.70783 17.4238 8.79883ZM13.2969 13.0957L5.47461 21.2383C6.82161 20.4723 11.7975 17.654 15.6055 15.498L13.2969 13.0957Z" fill="black"/>
</svg>
