<svg width="16" height="16" viewBox="0 0 16 16" fill="none" xmlns="http://www.w3.org/2000/svg">
<path fill-rule="evenodd" clip-rule="evenodd" d="M11.4423 8.3935C11.4423 6.61732 12.9475 5.79956 12.9475 5.79956C12.9475 5.79956 11.9609 4.30469 10.418 4.30469C9.2733 4.30469 8.66616 4.97525 7.89441 4.97525C6.97749 4.97525 6.50311 4.30469 5.36438 4.30469C4.06806 4.30469 2 5.47409 2 8.3935C2 11.2044 4.0427 14.6608 5.62397 14.6608C6.45238 14.6608 6.81937 14.1178 7.90683 14.1178C9.15943 14.1178 9.22257 14.6608 10.1649 14.6608C11.8406 14.6608 13.3333 11.115 13.3333 11.115C13.3333 11.115 11.4423 10.5017 11.4423 8.3935ZM10.1547 1.32812C8.97871 1.42408 7.30893 2.65072 7.53667 4.4716C9.0861 4.52884 10.3824 2.75921 10.1547 1.32812Z" fill="#A9ADB1"/>
</svg>
