<svg width="24" height="24" viewBox="0 0 24 24" fill="none" xmlns="http://www.w3.org/2000/svg">
<path fill-rule="evenodd" clip-rule="evenodd" d="M20.5162 16.0844L18.1337 13.7019C17.4898 13.0572 16.4442 13.0572 15.8003 13.7019L13.8244 15.6777C11.3454 14.6411 9.35886 12.6546 8.32224 10.1756L10.2981 8.19969C10.942 7.55498 10.942 6.51018 10.2981 5.86628L7.91562 3.48378C7.2709 2.83907 6.2261 2.83907 5.58139 3.48378L4.44904 4.61612C3.2717 5.79265 2.77589 7.48053 3.09498 9.11359C4.25432 15.0535 8.94569 19.7457 14.8864 20.9058C16.5195 21.2241 18.2073 20.7275 19.3839 19.5509L20.5162 18.4186C21.1609 17.7739 21.1609 16.7291 20.5162 16.0844Z" stroke="black" stroke-width="1.5" stroke-linecap="round" stroke-linejoin="round"/>
<path d="M13.636 3C17.7031 3 20.9995 6.29639 20.9995 10.3635" stroke="black" stroke-width="1.5" stroke-linecap="round" stroke-linejoin="round"/>
<path d="M13.636 6.27319C15.8949 6.27319 17.7268 8.10507 17.7268 10.364" stroke="black" stroke-width="1.5" stroke-linecap="round" stroke-linejoin="round"/>
</svg>
