<svg width="12" height="12" viewBox="0 0 12 12" fill="none" xmlns="http://www.w3.org/2000/svg">
<path d="M7.75 3C7.75 3.96619 6.96588 4.75 6 4.75C5.03412 4.75 4.25 3.96619 4.25 3C4.25 2.03381 5.03412 1.25 6 1.25C6.96588 1.25 7.75 2.03381 7.75 3Z" stroke="#007DFF" stroke-width="1.5" stroke-linecap="round" stroke-linejoin="round"/>
<mask id="path-3-inside-1" fill="white">
<path fill-rule="evenodd" clip-rule="evenodd" d="M10.5 11.5V10.125C10.5 8.6805 8.475 7.5 6 7.5C3.525 7.5 1.5 8.6805 1.5 10.125V11.5"/>
</mask>
<path d="M9 11.5C9 12.3284 9.67157 13 10.5 13C11.3284 13 12 12.3284 12 11.5H9ZM0 11.5C0 12.3284 0.671573 13 1.5 13C2.32843 13 3 12.3284 3 11.5H0ZM12 11.5V10.125H9V11.5H12ZM12 10.125C12 8.64397 10.9754 7.58252 9.93382 6.97508C8.85242 6.34439 7.45747 6 6 6V9C7.01753 9 7.87258 9.24586 8.42243 9.56655C8.69494 9.72548 8.85269 9.87904 8.93236 9.98845C8.97048 10.0408 8.98691 10.0776 8.99372 10.0969C8.99999 10.1146 9 10.1225 9 10.125H12ZM6 6C4.54254 6 3.14758 6.34439 2.06618 6.97508C1.02465 7.58252 0 8.64397 0 10.125H3C3 10.1225 3.00001 10.1146 3.00628 10.0969C3.01309 10.0776 3.02952 10.0408 3.06764 9.98845C3.14731 9.87904 3.30506 9.72548 3.57757 9.56655C4.12742 9.24586 4.98247 9 6 9V6ZM0 10.125V11.5H3V10.125H0Z" fill="#007DFF" mask="url(#path-3-inside-1)"/>
</svg>
