<svg width="24" height="24" viewBox="0 0 24 24" fill="none" xmlns="http://www.w3.org/2000/svg">
<path d="M9.70087 5.25C7.66271 5.25 6 6.91271 6 8.95087V14.2991C6 16.3373 7.66271 18 9.70087 18H15.0491C17.0873 18 18.75 16.3373 18.75 14.2991V8.95087C18.75 6.91271 17.0873 5.25 15.0491 5.25H9.70087ZM9.70087 6.23077H15.0491C16.5567 6.23077 17.7692 7.44141 17.7692 8.95087V14.2991C17.7692 15.8067 16.5586 17.0192 15.0491 17.0192H9.70087C8.19332 17.0192 6.98077 15.8086 6.98077 14.2991V8.95087C6.98077 7.44332 8.19141 6.23077 9.70087 6.23077ZM16.0529 7.21154C15.6468 7.21154 15.3173 7.54102 15.3173 7.94712C15.3173 8.35322 15.6468 8.68269 16.0529 8.68269C16.459 8.68269 16.7885 8.35322 16.7885 7.94712C16.7885 7.54102 16.459 7.21154 16.0529 7.21154ZM12.375 8.19231C10.4843 8.19231 8.94231 9.73434 8.94231 11.625C8.94231 13.5157 10.4843 15.0577 12.375 15.0577C14.2657 15.0577 15.8077 13.5157 15.8077 11.625C15.8077 9.73434 14.2657 8.19231 12.375 8.19231ZM12.375 9.17308C13.7351 9.17308 14.8269 10.2649 14.8269 11.625C14.8269 12.9851 13.7351 14.0769 12.375 14.0769C11.0149 14.0769 9.92308 12.9851 9.92308 11.625C9.92308 10.2649 11.0149 9.17308 12.375 9.17308Z" fill="#A9ADB1"/>
</svg>
