<svg width="24" height="24" viewBox="0 0 24 24" fill="none" xmlns="http://www.w3.org/2000/svg">
<path d="M23 12C23 18.0751 18.0751 23 12 23C5.92487 23 1 18.0751 1 12C1 5.92487 5.92487 1 12 1C18.0751 1 23 5.92487 23 12Z" stroke="#007DFF" stroke-width="2"/>
<path d="M13.75 8.99991C13.75 9.9661 12.9659 10.7499 12 10.7499C11.0341 10.7499 10.25 9.9661 10.25 8.99991C10.25 8.03372 11.0341 7.24991 12 7.24991C12.9659 7.24991 13.75 8.03372 13.75 8.99991Z" stroke="#007DFF" stroke-width="1.5" stroke-linecap="round" stroke-linejoin="round"/>
<mask id="path-4-inside-1" fill="white">
<path fill-rule="evenodd" clip-rule="evenodd" d="M16.5 17.5V16.125C16.5 14.6805 14.475 13.5 12 13.5C9.525 13.5 7.5 14.6805 7.5 16.125V17.5"/>
</mask>
<path d="M15 17.5C15 18.3284 15.6716 19 16.5 19C17.3284 19 18 18.3284 18 17.5H15ZM6 17.5C6 18.3284 6.67157 19 7.5 19C8.32843 19 9 18.3284 9 17.5H6ZM18 17.5V16.125H15V17.5H18ZM18 16.125C18 14.644 16.9754 13.5825 15.9338 12.9751C14.8524 12.3444 13.4575 12 12 12V15C13.0175 15 13.8726 15.2459 14.4224 15.5665C14.6949 15.7255 14.8527 15.879 14.9324 15.9884C14.9705 16.0408 14.9869 16.0776 14.9937 16.0969C15 16.1146 15 16.1225 15 16.125H18ZM12 12C10.5425 12 9.14758 12.3444 8.06618 12.9751C7.02465 13.5825 6 14.644 6 16.125H9C9 16.1225 9.00001 16.1146 9.00628 16.0969C9.01309 16.0776 9.02952 16.0408 9.06764 15.9884C9.14731 15.879 9.30506 15.7255 9.57757 15.5665C10.1274 15.2459 10.9825 15 12 15V12ZM6 16.125V17.5H9V16.125H6Z" fill="#007DFF" mask="url(#path-4-inside-1)"/>
</svg>
