<svg width="16" height="16" viewBox="0 0 16 16" fill="none" xmlns="http://www.w3.org/2000/svg">
<path d="M3.61068 1.3335L8.86458 6.80485L10.418 5.18766C7.7413 3.67366 4.20134 1.67083 3.61068 1.3335ZM2.09375 1.67985C2.03708 1.81185 2 1.95668 2 2.11735V13.5093C2 13.6406 2.02958 13.7618 2.07292 13.8752L7.9401 7.76709L2.09375 1.67985ZM11.6159 5.86605L9.78906 7.76709L11.6016 9.65511C12.7142 9.02511 13.4844 8.5887 13.4844 8.5887C13.817 8.3867 14.0034 8.07581 13.9987 7.73714C13.994 7.40714 13.8017 7.1027 13.4831 6.92204C13.4397 6.89737 12.6879 6.47205 11.6159 5.86605ZM8.86458 8.73063L3.64974 14.159C4.54774 13.6483 7.86498 11.7695 10.4036 10.3322L8.86458 8.73063Z" fill="#A9ADB1"/>
</svg>
