<svg width="264" height="163" viewBox="0 0 264 163" fill="none" xmlns="http://www.w3.org/2000/svg">
<g filter="url(#filter0_d)">
<mask id="mask0" mask-type="alpha" maskUnits="userSpaceOnUse" x="24" y="24" width="216" height="115">
<path fill-rule="evenodd" clip-rule="evenodd" d="M24 32C24 27.5817 27.5817 24 32 24H232C236.418 24 240 27.5817 240 32V131C240 135.418 236.418 139 232 139H32C27.5817 139 24 135.418 24 131V32Z" fill="#5756CE"/>
</mask>
<g mask="url(#mask0)">
<g filter="url(#filter1_d)">
<path fill-rule="evenodd" clip-rule="evenodd" d="M24 32C24 27.5817 27.5817 24 32 24H232C236.418 24 240 27.5817 240 32V131C240 135.418 236.418 139 232 139H32C27.5817 139 24 135.418 24 131V32Z" fill="#4CD964" fill-opacity="0.5"/>
</g>
<ellipse cx="156.56" cy="-2.37882" rx="96.6647" ry="90.9923" fill="#4CD964" fill-opacity="0.5"/>
<ellipse cx="213.866" cy="119.734" rx="96.6647" ry="90.9923" fill="#4CD964"/>
</g>
</g>
<circle cx="132" cy="83" r="40" fill="white"/>
<mask id="mask1" mask-type="alpha" maskUnits="userSpaceOnUse" x="92" y="43" width="80" height="80">
<circle cx="132" cy="83" r="40" fill="#C4C4C4"/>
</mask>
<g mask="url(#mask1)">
<path d="M151.441 88.6459L151.028 92.3569L150.75 94.8569H115.75L115.472 92.3569L115.059 88.6459C114.693 85.3432 115.188 82.0018 116.497 78.9475C117.65 76.2557 118.174 73.3363 118.028 70.4115L117.811 66.0865C117.707 63.9942 118.029 61.9026 118.757 59.9385C119.486 57.9744 120.606 56.179 122.05 54.6612C123.494 53.1434 125.232 51.935 127.157 51.1092C129.082 50.2835 131.155 49.8577 133.25 49.8577C135.345 49.8577 137.418 50.2835 139.343 51.1092C141.269 51.935 143.006 53.1434 144.45 54.6612C145.894 56.179 147.014 57.9744 147.743 59.9385C148.472 61.9026 148.794 63.9942 148.689 66.0865L148.472 70.4115C148.327 73.3363 148.85 76.2557 150.003 78.9475C151.313 82.0017 151.808 85.3432 151.441 88.6459Z" fill="#454B69"/>
<path opacity="0.1" d="M151.441 88.6459L151.028 92.3568H137V78.6068L139.5 73.6068V63.6068C139.498 60.5934 138.508 57.6638 136.681 55.2677C134.853 52.8716 132.29 51.1414 129.384 50.3427C131.732 49.7402 134.188 49.6974 136.555 50.2179C138.923 50.7384 141.134 51.8076 143.013 53.3394C144.891 54.8712 146.383 56.8228 147.369 59.0369C148.355 61.251 148.807 63.6657 148.689 66.0865L148.472 70.4115C148.326 73.3362 148.85 76.2556 150.003 78.9474C151.313 82.0017 151.808 85.3432 151.441 88.6459Z" fill="black"/>
<path d="M140 89.8568C139.77 89.8569 139.543 89.8118 139.33 89.7239C139.118 89.6359 138.925 89.507 138.762 89.3445C138.6 89.182 138.471 88.989 138.383 88.7767C138.295 88.5643 138.25 88.3367 138.25 88.1068V79.8568H128.25V88.1068C128.25 88.3367 128.205 88.5643 128.117 88.7767C128.029 88.989 127.9 89.182 127.738 89.3445C127.575 89.507 127.382 89.6359 127.17 89.7239C126.957 89.8118 126.73 89.8569 126.5 89.8568H124.5V97.3568H142V89.8568H140Z" fill="#FFDCAD"/>
<path d="M134.004 86.1068C135.552 86.0898 137.048 85.5498 138.25 84.5745V79.8568H128.25V84.574C129.452 85.5495 130.948 86.0897 132.496 86.1068H134.004Z" fill="#FEB784"/>
<path d="M144.5 66.1068V72.3568C144.5 75.3405 143.315 78.202 141.205 80.3118C139.095 82.4215 136.234 83.6068 133.25 83.6068C130.266 83.6068 127.405 82.4215 125.295 80.3118C123.185 78.202 122 75.3405 122 72.3568V66.1068C124.458 64.469 126.445 62.2176 127.766 59.5756L128.25 58.6068L128.959 59.199C132.065 61.7871 135.645 63.7454 139.5 64.9646C141.132 65.482 142.805 65.8641 144.5 66.1068Z" fill="#FFDCAD"/>
<path d="M144.5 66.1068V72.3568C144.499 74.968 143.591 77.4978 141.93 79.5128C140.27 81.5278 137.96 82.9028 135.397 83.4021C136.698 82.1246 137.732 80.6002 138.436 78.9182C139.141 77.2362 139.502 75.4304 139.5 73.6068V64.9646C141.132 65.482 142.805 65.864 144.5 66.1068Z" fill="#FEC093"/>
<path d="M127.625 71.1068C127.254 71.1068 126.892 70.9968 126.583 70.7908C126.275 70.5848 126.035 70.292 125.893 69.9493C125.751 69.6067 125.714 69.2297 125.786 68.866C125.858 68.5023 126.037 68.1682 126.299 67.906C126.561 67.6438 126.895 67.4652 127.259 67.3928C127.623 67.3205 128 67.3576 128.343 67.4995C128.685 67.6415 128.978 67.8818 129.184 68.1901C129.39 68.4985 129.5 68.861 129.5 69.2318C129.499 69.7289 129.302 70.2055 128.95 70.557C128.599 70.9086 128.122 71.1063 127.625 71.1068Z" fill="#7A432A"/>
<path d="M138.875 71.1068C138.504 71.1068 138.142 70.9968 137.833 70.7908C137.525 70.5848 137.285 70.292 137.143 69.9493C137.001 69.6067 136.964 69.2297 137.036 68.866C137.108 68.5023 137.287 68.1682 137.549 67.906C137.811 67.6438 138.145 67.4652 138.509 67.3928C138.873 67.3205 139.25 67.3576 139.593 67.4995C139.935 67.6415 140.228 67.8818 140.434 68.1901C140.64 68.4985 140.75 68.861 140.75 69.2318C140.749 69.7289 140.552 70.2055 140.2 70.557C139.849 70.9086 139.372 71.1063 138.875 71.1068Z" fill="#7A432A"/>
<path d="M133.25 80.4636C132.256 80.4625 131.303 80.0671 130.6 79.364C130.195 78.9593 129.892 78.4717 129.708 77.9411C129.481 77.2888 130.06 76.7136 130.751 76.7136H131.018C131.56 76.7136 131.983 77.2141 132.366 77.5975C132.601 77.8319 132.918 77.9636 133.25 77.9636C133.582 77.9636 133.899 77.8319 134.134 77.5975C134.517 77.2141 134.94 76.7136 135.482 76.7136H135.749C136.44 76.7136 137.019 77.2888 136.792 77.9411C136.608 78.4717 136.305 78.9593 135.9 79.364C135.197 80.0671 134.244 80.4625 133.25 80.4636Z" fill="#C06100"/>
<path d="M158.714 122.305C157.827 122.453 156.917 122.281 156.145 121.82C155.373 121.359 154.79 120.639 154.5 119.788L146.244 104.299C146.77 105.871 146.885 107.55 146.58 109.179C146.275 110.808 145.559 112.332 144.5 113.607V123.607H122V113.607C120.926 112.317 120.203 110.772 119.9 109.122C119.598 107.471 119.727 105.77 120.275 104.183L111.884 119.788C111.562 120.735 110.879 121.517 109.984 121.962C109.088 122.408 108.053 122.482 107.103 122.168C106.153 121.854 105.366 121.177 104.913 120.286C104.46 119.394 104.377 118.359 104.683 117.407L113.861 94.5615C114.419 93.1721 115.38 91.9815 116.62 91.143C117.86 90.3045 119.323 89.8565 120.82 89.8568H125.75L133.25 103.607L140.75 89.8568H145.661C147.162 89.8579 148.629 90.3091 149.871 91.1522C151.114 91.9953 152.074 93.1916 152.63 94.5865L161.703 117.407C161.869 117.925 161.921 118.473 161.856 119.014C161.792 119.554 161.611 120.074 161.328 120.539C161.044 121.004 160.664 121.402 160.213 121.707C159.762 122.011 159.251 122.216 158.714 122.305Z" fill="#007AFF"/>
<path d="M103.598 117.827L104.5 106.107H112V118.15C112 119.266 111.557 120.336 110.768 121.125C109.979 121.914 108.909 122.357 107.793 122.357C107.213 122.357 106.64 122.237 106.109 122.005C105.578 121.773 105.1 121.434 104.706 121.008C104.312 120.583 104.011 120.081 103.82 119.533C103.629 118.986 103.554 118.405 103.598 117.827Z" fill="#007AFF"/>
<path d="M107.441 87.8725C107.088 87.9608 106.759 88.1273 106.478 88.3598C106.198 88.5922 105.974 88.8846 105.821 89.2154C105.669 89.5462 105.593 89.907 105.599 90.2711C105.605 90.6351 105.693 90.9932 105.856 91.3189L107 93.6069H102.52C101.356 93.6069 100.208 93.3358 99.1664 92.8152L97.9208 92.1923C97.6921 92.078 97.438 92.024 97.1826 92.0355C96.9272 92.047 96.6789 92.1236 96.4614 92.258C96.2439 92.3924 96.0644 92.5802 95.9399 92.8035C95.8154 93.0268 95.75 93.2782 95.75 93.5339V97.0617C95.75 97.526 95.8793 97.9811 96.1234 98.3761C96.3675 98.771 96.7168 99.0902 97.132 99.2978L99.1664 100.315C100.208 100.836 101.356 101.107 102.52 101.107H112V93.6069L110.288 89.3277C110.07 88.7818 109.661 88.3337 109.137 88.0662C108.614 87.7986 108.011 87.7298 107.441 87.8725Z" fill="#FFDCAD"/>
<path opacity="0.1" d="M104.5 101.107H112V106.107H104.5V101.107Z" fill="#007AFF"/>
<path opacity="0.08" d="M158.714 122.305C157.827 122.453 156.917 122.281 156.145 121.82C155.373 121.359 154.79 120.639 154.5 119.788L146.244 104.299C146.769 105.87 146.885 107.55 146.58 109.179C146.275 110.808 145.559 112.332 144.5 113.607V123.607H122.411C132.728 116.869 141.433 108.319 148.739 90.519C150.516 91.3172 151.911 92.7761 152.63 94.5862L161.703 117.407C161.869 117.925 161.921 118.473 161.856 119.013C161.792 119.554 161.611 120.074 161.328 120.539C161.044 121.003 160.664 121.402 160.213 121.706C159.762 122.011 159.251 122.215 158.714 122.305Z" fill="black"/>
<path d="M150.75 118.607L138.25 116.107V98.6068L150.75 101.107V118.607Z" fill="#494F71"/>
<path d="M155.75 118.607L168.25 116.107V98.6068L155.75 101.107V118.607Z" fill="#3F3D56"/>
<path d="M150.75 101.107H155.75V118.607H150.75V101.107Z" fill="#454B69"/>
<path d="M153.25 101.107C153.25 100.059 152.878 99.0451 152.201 98.2455C151.524 97.4459 150.585 96.9126 149.551 96.7402L138.25 94.8568V98.6068L150.75 101.107H153.25C153.25 100.059 153.622 99.0451 154.299 98.2455C154.976 97.4459 155.915 96.9126 156.949 96.7402L168.25 94.8568V98.6068L155.75 101.107H153.25Z" fill="#FBE19F"/>
<path d="M165.955 118.488L160.955 119.321C160.776 119.351 160.593 119.342 160.418 119.293C160.243 119.245 160.081 119.159 159.942 119.042C159.804 118.925 159.692 118.779 159.616 118.614C159.54 118.449 159.5 118.27 159.5 118.088V113.442C159.5 113.057 159.637 112.684 159.885 112.39C160.134 112.097 160.479 111.901 160.859 111.837L165.105 111.129C165.338 111.091 165.577 111.103 165.805 111.166C166.033 111.228 166.244 111.34 166.425 111.493C166.605 111.646 166.75 111.836 166.849 112.05C166.949 112.265 167 112.498 167 112.735V117.255C167 117.551 166.895 117.837 166.704 118.063C166.512 118.289 166.247 118.439 165.955 118.488Z" fill="#FEC9A3"/>
<circle cx="132" cy="83" r="39.5" stroke="#F2F2F2"/>
</g>
<defs>
<filter id="filter0_d" x="0" y="0" width="264" height="163" filterUnits="userSpaceOnUse" color-interpolation-filters="sRGB">
<feFlood flood-opacity="0" result="BackgroundImageFix"/>
<feColorMatrix in="SourceAlpha" type="matrix" values="0 0 0 0 0 0 0 0 0 0 0 0 0 0 0 0 0 0 127 0"/>
<feOffset/>
<feGaussianBlur stdDeviation="12"/>
<feColorMatrix type="matrix" values="0 0 0 0 0.341176 0 0 0 0 0.337255 0 0 0 0 0.807843 0 0 0 0.12 0"/>
<feBlend mode="normal" in2="BackgroundImageFix" result="effect1_dropShadow"/>
<feBlend mode="normal" in="SourceGraphic" in2="effect1_dropShadow" result="shape"/>
</filter>
<filter id="filter1_d" x="3" y="2" width="264" height="163" filterUnits="userSpaceOnUse" color-interpolation-filters="sRGB">
<feFlood flood-opacity="0" result="BackgroundImageFix"/>
<feColorMatrix in="SourceAlpha" type="matrix" values="0 0 0 0 0 0 0 0 0 0 0 0 0 0 0 0 0 0 127 0"/>
<feOffset dx="3" dy="2"/>
<feGaussianBlur stdDeviation="12"/>
<feColorMatrix type="matrix" values="0 0 0 0 0 0 0 0 0 0 0 0 0 0 0 0 0 0 0.09 0"/>
<feBlend mode="normal" in2="BackgroundImageFix" result="effect1_dropShadow"/>
<feBlend mode="normal" in="SourceGraphic" in2="effect1_dropShadow" result="shape"/>
</filter>
</defs>
</svg>
