<svg width="24" height="24" viewBox="0 0 24 24" fill="none" xmlns="http://www.w3.org/2000/svg">
<path fill-rule="evenodd" clip-rule="evenodd" d="M19.1558 8.10321C19.2601 7.7555 19.1558 7.5 18.6595 7.5H17.0185C16.6013 7.5 16.4089 7.72072 16.3046 7.9641C16.3046 7.9641 15.4701 9.99819 14.2879 11.3195C13.9054 11.7019 13.7316 11.8236 13.5229 11.8236C13.4186 11.8236 13.2676 11.7019 13.2676 11.3542V8.10321C13.2676 7.68596 13.1465 7.5 12.7988 7.5H10.2201C9.95934 7.5 9.80252 7.69366 9.80252 7.87719C9.80252 8.27274 10.3936 8.36396 10.4545 9.47664V11.8932C10.4545 12.423 10.3588 12.5191 10.1502 12.5191C9.59389 12.5191 8.24067 10.4759 7.43808 8.13797C7.28079 7.68356 7.12304 7.5 6.70364 7.5H5.06264C4.59378 7.5 4.5 7.72072 4.5 7.9641C4.5 8.39875 5.05634 10.5545 7.0904 13.4057C8.44643 15.3528 10.357 16.4083 12.0955 16.4083C13.1386 16.4083 13.2677 16.1739 13.2677 15.7701V14.2984C13.2677 13.8296 13.3665 13.736 13.6968 13.736C13.9402 13.736 14.3574 13.8577 15.331 14.7965C16.4437 15.9092 16.6271 16.4083 17.253 16.4083H18.894C19.3628 16.4083 19.5973 16.1739 19.462 15.7113C19.314 15.2502 18.7828 14.5812 18.0779 13.7882C17.6954 13.3362 17.1217 12.8494 16.9478 12.606C16.7045 12.2931 16.774 12.1539 16.9478 11.8758C16.9478 11.8758 18.9472 9.05938 19.1558 8.10321Z" fill="#A9ADB1"/>
</svg>
