<svg width="24" height="24" viewBox="0 0 24 24" fill="none" xmlns="http://www.w3.org/2000/svg">
<path d="M16.6731 7.83C15.4944 6.65063 13.9269 6.00063 12.2569 6C8.81562 6 6.015 8.79937 6.01375 12.2406C6.01313 13.3406 6.30063 14.4144 6.84688 15.3606L6 18.5L9.27062 17.7269C10.1825 18.2244 11.2087 18.4863 12.2537 18.4869H12.2563C15.6969 18.4869 18.4975 15.6869 18.4994 12.2463C18.5006 10.5781 17.8519 9.01 16.6731 7.83ZM15.3113 14.4713C15.1813 14.8356 14.5444 15.1869 14.2581 15.2125C13.9719 15.2388 13.7038 15.3419 12.3863 14.8225C10.8006 14.1975 9.79938 12.5719 9.72188 12.4681C9.64375 12.3638 9.085 11.6225 9.085 10.855C9.085 10.0875 9.48813 9.71 9.63125 9.55438C9.77437 9.39812 9.94313 9.35938 10.0475 9.35938C10.1513 9.35938 10.2556 9.35938 10.3463 9.36313C10.4575 9.3675 10.5806 9.37312 10.6975 9.6325C10.8362 9.94125 11.1394 10.7125 11.1781 10.7906C11.2169 10.8688 11.2431 10.96 11.1912 11.0638C11.1394 11.1675 11.1131 11.2325 11.0356 11.3238C10.9575 11.415 10.8719 11.5269 10.8019 11.5969C10.7238 11.6744 10.6425 11.7594 10.7331 11.915C10.8244 12.0712 11.1369 12.5819 11.6006 12.995C12.1969 13.5263 12.6988 13.6906 12.855 13.7694C13.0113 13.8475 13.1019 13.8344 13.1931 13.73C13.2844 13.6263 13.5831 13.275 13.6869 13.1188C13.7906 12.9625 13.895 12.9888 14.0381 13.0406C14.1813 13.0925 14.9481 13.47 15.1038 13.5481C15.26 13.6263 15.3638 13.665 15.4025 13.73C15.4413 13.7944 15.4413 14.1069 15.3113 14.4713Z" fill="#A9ADB1"/>
</svg>
