<svg width="24" height="24" viewBox="0 0 24 24" fill="none" xmlns="http://www.w3.org/2000/svg">
<path fill-rule="evenodd" clip-rule="evenodd" d="M10.4514 13.9364L10.4509 9.74194L14.5037 11.8464L10.4514 13.9364ZM19.35 9.01496C19.35 9.01496 19.2033 7.98628 18.7537 7.53329C18.1833 6.93847 17.5439 6.93568 17.2509 6.90115C15.1519 6.75 12.0033 6.75 12.0033 6.75H11.9967C11.9967 6.75 8.84812 6.75 6.74906 6.90115C6.45562 6.93568 5.81672 6.93847 5.24578 7.53329C4.79625 7.98628 4.65 9.01496 4.65 9.01496C4.65 9.01496 4.5 10.2233 4.5 11.4311V12.5638C4.5 13.7721 4.65 14.9799 4.65 14.9799C4.65 14.9799 4.79625 16.0086 5.24578 16.4616C5.81672 17.0564 6.56625 17.0377 6.9 17.0998C8.1 17.2145 12 17.25 12 17.25C12 17.25 15.1519 17.2453 17.2509 17.0942C17.5439 17.0592 18.1833 17.0564 18.7537 16.4616C19.2033 16.0086 19.35 14.9799 19.35 14.9799C19.35 14.9799 19.5 13.7721 19.5 12.5638V11.4311C19.5 10.2233 19.35 9.01496 19.35 9.01496Z" fill="#A9ADB1"/>
</svg>
